<?xml version="1.0" standalone="no"?>
<!DOCTYPE svg PUBLIC "-//W3C//DTD SVG 1.1//EN" "http://www.w3.org/Graphics/SVG/1.1/DTD/svg11.dtd" >
<svg xmlns="http://www.w3.org/2000/svg" xmlns:xlink="http://www.w3.org/1999/xlink" version="1.1" viewBox="0 0 512 512">
  <g transform="matrix(1 0 0 -1 0 512)">
   <path fill="currentColor"
d="M347 357q0 -6 -6.5 -6t-6.5 5t3 7t6.5 0t3.5 -6zM321 357q0 -6 -6.5 -6t-6.5 5t3 7t6.5 0t3.5 -6zM296 357q0 -6 -6.5 -6t-6.5 5t3.5 7t6.5 0t3 -6zM270 357q0 -6 -6.5 -6t-6.5 5t3.5 7t6.5 0t3 -6zM244 357q0 -6 -6 -6t-6 5t3 7t6 0t3 -6zM219 357q0 -6 -6.5 -6t-6.5 5
t3 7t6.5 0t3.5 -6zM193 357q0 -6 -6.5 -6t-6.5 5t3 7t6.5 0t3.5 -6zM168 357q0 -6 -6.5 -6t-6.5 5t3.5 7t6.5 0t3 -6zM142 357q0 -6 -6.5 -6t-6.5 5t3.5 7t6.5 0t3 -6zM116 357q0 -6 -6 -6t-6 5t3 7t6 0t3 -6zM347 261q0 -6 -6.5 -6t-6.5 5t3 7t6.5 0t3.5 -6zM321 261
q0 -6 -6.5 -6t-6.5 5t3 7t6.5 0t3.5 -6zM296 261q0 -6 -6.5 -6t-6.5 5t3.5 7t6.5 0t3 -6zM270 261q0 -6 -6.5 -6t-6.5 5t3.5 7t6.5 0t3 -6zM244 261q0 -6 -6 -6t-6 5t3 7t6 0t3 -6zM219 261q0 -6 -6.5 -6t-6.5 5t3 7t6.5 0t3.5 -6zM193 261q0 -6 -6.5 -6t-6.5 5t3 7t6.5 0
t3.5 -6zM168 261q0 -6 -6.5 -6t-6.5 5t3.5 7t6.5 0t3 -6zM142 261q0 -6 -6.5 -6t-6.5 5t3.5 7t6.5 0t3 -6zM116 261q0 -6 -6 -6t-6 5t3 7t6 0t3 -6zM244 165q0 -6 -6 -6t-6 5t3 7t6 0t3 -6zM219 165q0 -6 -6.5 -6t-6.5 5t3 7t6.5 0t3.5 -6zM193 165q0 -6 -6.5 -6t-6.5 5t3 7
t6.5 0t3.5 -6zM168 165q0 -6 -6.5 -6t-6.5 5t3.5 7t6.5 0t3 -6zM142 165q0 -6 -6.5 -6t-6.5 5t3.5 7t6.5 0t3 -6zM116 165q0 -6 -6 -6t-6 5t3 7t6 0t3 -6zM60 469v1q0 4 -4 4q4 0 4 4v11q0 4 -4 4q4 0 4 4v11q0 4 -4 4h-52q-4 0 -4 -4v-11q0 -4 4 -4q-4 0 -4 -4v-11
q0 -4 4 -4q-4 0 -4 -4v-11q0 -4 4 -4q-4 0 -4 -3v-12q0 -3 4 -3h33zM37 503h6h-6zM37 484h6h-6zM37 465h6h-6zM72 450q0 -7 -5 -12t-12 -5t-11.5 5t-4.5 12q0 16 16.5 16t16.5 -16zM312 143h87v-12h-87v12zM362 180v-87h-13v87h13z" />
  </g>

</svg>
