<?xml version="1.0" encoding="utf-8"?>
<!-- Generator: Adobe Illustrator 21.0.2, SVG Export Plug-In . SVG Version: 6.00 Build 0)  -->
<svg version="1.1" id="Layer_1" xmlns="http://www.w3.org/2000/svg" xmlns:xlink="http://www.w3.org/1999/xlink" x="0px" y="0px"
	 viewBox="0 0 512 512" style="enable-background:new 0 0 512 512;" xml:space="preserve">
<title>Icons8 RSL Colored Part 11</title>
<path d="M486.3,256c0-8.5-4.4-16.3-11.7-20.6L442.1,216l32.6-19.4c11.4-6.8,15.1-21.5,8.3-32.9c-2-3.4-4.9-6.3-8.3-8.3L276.5,37.3
	c-12.6-7.5-28.3-7.5-41,0L37.4,155.4c-11.4,6.8-15.1,21.5-8.3,32.9c2,3.4,4.9,6.3,8.3,8.3L69.9,216l-32.6,19.4
	c-11.4,6.8-15.1,21.5-8.3,32.9c2,3.4,4.9,6.3,8.3,8.3L69.9,296l-32.6,19.4c-11.4,6.8-15.1,21.5-8.3,32.9c2,3.4,4.9,6.3,8.3,8.3
	l198.2,118.2c12.6,7.5,28.3,7.5,41,0l198.2-118.1c11.4-6.8,15.1-21.5,8.3-32.9c-2-3.4-4.9-6.3-8.3-8.3L442.1,296l32.6-19.4
	C481.9,272.3,486.3,264.5,486.3,256z M41.7,176c0-2.8,1.5-5.4,3.9-6.9L243.7,51c7.6-4.5,17-4.5,24.6,0l198.2,118.1
	c3.8,2.3,5.1,7.2,2.8,11c-0.7,1.2-1.6,2.1-2.8,2.8l-206.3,123c-2.5,1.4-5.5,1.4-8,0l-206.5-123C43.2,181.4,41.7,178.8,41.7,176z
	 M466.4,329.1c3.8,2.3,5.1,7.2,2.8,11c-0.7,1.2-1.6,2.1-2.8,2.8L268.3,461c-7.6,4.5-17,4.5-24.6,0L45.6,342.9
	c-3.8-2.3-5.1-7.2-2.8-11c0.7-1.2,1.6-2.1,2.8-2.8l40-24l149.9,89.6c12.6,7.5,28.3,7.5,41,0l150-89.4L466.4,329.1z M466.4,262.9
	L268.3,381c-7.6,4.5-17,4.5-24.6,0L45.6,262.9c-3.8-2.3-5.1-7.2-2.8-11c0.7-1.2,1.6-2.1,2.8-2.8l40-24l158.1,94.5
	c7.6,4.5,17,4.5,24.6,0l158.2-94.3l40,24c3.8,2.3,5.1,7.2,2.8,11c-0.7,1.2-1.6,2.1-2.8,2.8L466.4,262.9z"/>
</svg>
