<?xml version="1.0" standalone="no"?>
<!DOCTYPE svg PUBLIC "-//W3C//DTD SVG 1.1//EN" "http://www.w3.org/Graphics/SVG/1.1/DTD/svg11.dtd" >
<svg xmlns="http://www.w3.org/2000/svg" xmlns:xlink="http://www.w3.org/1999/xlink" version="1.1" viewBox="0 0 512 512">
  <g transform="matrix(1 0 0 -1 0 512)">
   <path fill="currentColor"
d="M85 427q-17 0 -29.5 -13t-12.5 -30v-256q0 -17 12.5 -30t29.5 -13h342q17 0 29.5 13t12.5 30v213q0 17 -13 29.5t-29 13.5h-192l-43 43h-107zM213 341h86v-21h-86v21zM213 299h86v-22h-86v22zM213 256h86q21 -63 21 -73q0 -21 -15.5 -36t-39.5 -18q-3 -1 -9 -1t-9 1
q-24 3 -39.5 18t-15.5 36q0 6 5 24t11 33zM256 219q-11 0 -19 -8t-8 -19t8 -19t19 -8t19 8t8 19t-8 19t-19 8z" />
  </g>

</svg>
