<?xml version="1.0" standalone="no"?>
<!DOCTYPE svg PUBLIC "-//W3C//DTD SVG 1.1//EN" "http://www.w3.org/Graphics/SVG/1.1/DTD/svg11.dtd" >
<svg xmlns="http://www.w3.org/2000/svg" xmlns:xlink="http://www.w3.org/1999/xlink" version="1.1" viewBox="0 0 512 512">
  <g transform="matrix(1 0 0 -1 0 512)">
   <path fill="currentColor"
d="M427 405q0 27 -19 45.5t-45.5 18.5t-45 -18.5t-18.5 -45.5q0 -43 40 -59q-5 -23 -27 -35t-68 -23q-50 -12 -73 -25v82q18 7 30 23.5t12 36.5q0 27 -18.5 45.5t-45 18.5t-45.5 -18.5t-19 -45.5q0 -20 12 -36.5t31 -23.5v-178q-19 -7 -31 -23.5t-12 -36.5q0 -27 19 -45.5
t45.5 -18.5t45 18.5t18.5 45.5q0 20 -12 36.5t-30 23.5v25q0 22 17.5 32.5t65.5 22.5q26 6 41.5 11t37 16t34 29t16.5 42q19 6 31.5 22.5t12.5 37.5zM149 85q-8 0 -14.5 6.5t-6.5 15t6.5 15t15 6.5t15 -6.5t6.5 -15t-6.5 -15t-15.5 -6.5zM149 427q9 0 15.5 -6.5t6.5 -15
t-6.5 -15t-15 -6.5t-15 6.5t-6.5 15t6.5 15t14.5 6.5zM363 384q-9 0 -15.5 6.5t-6.5 15t6.5 15t15 6.5t15 -6.5t6.5 -15t-6.5 -15t-14.5 -6.5z" />
  </g>

</svg>
