<?xml version="1.0" encoding="utf-8"?>
<!-- Generator: Adobe Illustrator 21.0.2, SVG Export Plug-In . SVG Version: 6.00 Build 0)  -->
<svg version="1.1" id="Слой_1" xmlns="http://www.w3.org/2000/svg" xmlns:xlink="http://www.w3.org/1999/xlink" x="0px" y="0px"
	 viewBox="0 0 500 500" style="enable-background:new 0 0 500 500;" xml:space="preserve">
<style type="text/css">
	.st0{fill:#231F20;}
</style>
<polyline class="st0" points="382.8,392.4 382.8,197.1 367.2,197.1 367.2,392.4 335.9,392.4 335.9,251.8 320.3,251.8 320.3,392.4 
	273.4,392.4 273.4,283.1 257.8,283.1 257.8,392.4 226.6,392.4 226.6,322.1 210.9,322.1 210.9,392.4 179.7,392.4 179.7,228.4 
	164.1,228.4 164.1,392.4 132.8,392.4 132.8,353.4 117.2,353.4 117.2,392.4 "/>
<path class="st0" d="M367,107.4l-40.5,11.2c-5,1.4-6.6,7.6-3,11.3l13.2,13.2l-54.6,63.6c-9.1,9.1-20.4,6.5-33.1,0l-49.6-29.6
	c-16.7-12.4-40-15.2-55.2,0l-41.7,51.7l11,11l41.7-51.7c9.1-9.1,19.4-9.3,33.1,0l49.6,29.6c19,12.7,40,15.2,55.2,0l54.6-63.6
	l13.2,13.2c3.7,3.7,9.9,2,11.3-3l11.2-40.5C386.4,113.9,377.1,104.6,367,107.4z"/>
<path class="st0" d="M406.2,54.7H93.8c-21.5,0-39.1,17.5-39.1,39.1v312.5c0,21.5,17.5,39.1,39.1,39.1h312.5
	c21.5,0,39.1-17.5,39.1-39.1V93.8C445.2,72.2,427.8,54.7,406.2,54.7z M70.4,93.8c0-12.9,10.5-23.4,23.4-23.4h312.5
	c12.9,0,23.4,10.5,23.4,23.4v312.4h0c0,12.9-10.5,23.4-23.4,23.4H93.8c-12.9,0-23.4-10.5-23.4-23.4"/>
</svg>
