<?xml version="1.0" standalone="no"?>
<!DOCTYPE svg PUBLIC "-//W3C//DTD SVG 1.1//EN" "http://www.w3.org/Graphics/SVG/1.1/DTD/svg11.dtd" >
<svg xmlns="http://www.w3.org/2000/svg" xmlns:xlink="http://www.w3.org/1999/xlink" version="1.1" viewBox="0 0 512 512">
  <g transform="matrix(1 0 0 -1 0 512)">
   <path fill="currentColor"
d="M96 469q-22 0 -37.5 -15.5t-15.5 -37.5t15.5 -37.5t37.5 -15.5q5 0 17 2l52 -60q-16 -22 -16 -49t16 -49l-52 -60q-12 2 -17 2q-22 0 -37.5 -15.5t-15.5 -37.5t15.5 -37.5t37.5 -15.5t37.5 15.5t15.5 37.5q0 13 -4 22l52 61q19 -8 38 -8q16 0 31 6l40 -54q-7 -11 -7 -27
q0 -22 15.5 -37.5t37.5 -15.5t37.5 15.5t15.5 37.5t-15.5 37.5t-37.5 15.5q-8 0 -11 -1l-40 54q13 18 17 37l51 4q13 -30 47 -30q22 0 37.5 16t15.5 38t-15.5 37.5t-37.5 15.5q-37 0 -50 -35l-51 -3q-4 15 -15 29l39 54q8 -2 13 -2q22 0 37.5 15.5t15.5 37.5t-15.5 37.5
t-37.5 15.5t-37.5 -15.5t-15.5 -37.5q0 -13 6 -25l-40 -56q-14 6 -30 6q-19 0 -38 -8l-52 61q4 9 4 22q0 22 -15.5 37.5t-37.5 15.5z" />
  </g>

</svg>
