<?xml version="1.0" encoding="UTF-8"?>
<svg width="300px" height="300px" viewBox="0 0 300 300" version="1.1" xmlns="http://www.w3.org/2000/svg" xmlns:xlink="http://www.w3.org/1999/xlink">
    <!-- Generator: Sketch 43.2 (39069) - http://www.bohemiancoding.com/sketch -->
    <title>Artboard</title>
    <desc>Created with Sketch.</desc>
    <defs></defs>
    <g id="Page-1" stroke="none" stroke-width="1" fill="none" fill-rule="evenodd">
        <g id="Artboard" fill="#000000">
            <path d="M242,159 C236,159 232,161 224,167 C214,175 208,179 206,169 C204,159 198,123 196,115 C194,109 192,105 186,103 C186,103 150,97 140,93 C132,91 128,87 134,75 C140,67 142,63 142,57 C142,41 130,29 114,29 C98,29 86,41 86,57 C86,63 88,69 92,75 C100,87 96,91 86,93 C74,95 40,103 40,103 C36,103 32,109 32,113 L32,165 C32,165 32,165 32,167 C34,177 42,171 50,165 C56,161 62,157 68,157 C84,157 96,169 96,185 C96,201 84,213 68,213 C60,213 56,211 50,205 C44,199 34,193 32,203 L32,205 L32,259 C32,265 36,269 42,269 L188,269 C194,269 196,265 198,259 C198,259 206,213 208,203 C210,193 216,197 226,205 C232,209 238,213 244,213 C260,213 272,201 272,185 C270,171 258,159 242,159" id="Fill-4"></path>
        </g>
    </g>
</svg>