<?xml version="1.0" standalone="no"?>
<!DOCTYPE svg PUBLIC "-//W3C//DTD SVG 1.1//EN" "http://www.w3.org/Graphics/SVG/1.1/DTD/svg11.dtd" >
<svg xmlns="http://www.w3.org/2000/svg" xmlns:xlink="http://www.w3.org/1999/xlink" version="1.1" viewBox="0 0 512 512">
  <g transform="matrix(1 0 0 -1 0 512)">
   <path fill="currentColor"
d="M256 469q-88 0 -150.5 -62.5t-62.5 -150.5t62.5 -150.5t150.5 -62.5t150.5 62.5t62.5 150.5t-62.5 150.5t-150.5 62.5zM256 427q70 0 120.5 -50.5t50.5 -120.5t-50.5 -120.5t-120.5 -50.5t-120.5 50.5t-50.5 120.5t50.5 120.5t120.5 50.5zM254 363q-31 0 -46.5 -16
t-15.5 -32v-16h43q0 32 21 32t21 -28q0 -21 -21 -41t-21 -49h42q0 17 21.5 39.5t21.5 50.5q0 21 -15 40.5t-51 19.5zM235 192v-43h42v43h-42z" />
  </g>

</svg>
