<?xml version="1.0" encoding="utf-8"?>
<!-- Generator: Adobe Illustrator 21.0.2, SVG Export Plug-In . SVG Version: 6.00 Build 0)  -->
<svg version="1.1" id="Слой_1" xmlns="http://www.w3.org/2000/svg" xmlns:xlink="http://www.w3.org/1999/xlink" x="0px" y="0px"
	 viewBox="0 0 64 64" style="enable-background:new 0 0 64 64;" xml:space="preserve">
<style type="text/css">
	.st0{fill:#231F20;}
</style>
<path class="st0" d="M55,25h-1v-2c0-1.1-0.9-2-2-2v-4c0-2.8-2.2-5-5-5h-4c0-1.1-0.9-2-2-2h-2V9c0-1.7-1.3-3-3-3h-8c-1.7,0-3,1.3-3,3
	v1h-2c-1.1,0-2,0.9-2,2h-4c-2.8,0-5,2.2-5,5v4c-1.1,0-2,0.9-2,2v2H9c-1.7,0-3,1.3-3,3v8c0,1.7,1.3,3,3,3h1v2c0,1.1,0.9,2,2,2v4
	c0,2.8,2.2,5,5,5h4c0,1.1,0.9,2,2,2h2v1c0,1.7,1.3,3,3,3h8c1.7,0,3-1.3,3-3v-1h2c1.1,0,2-0.9,2-2h4c2.8,0,5-2.2,5-5v-4
	c1.1,0,2-0.9,2-2v-2h1c1.7,0,3-1.3,3-3v-8C58,26.3,56.7,25,55,25z M50,25v-2h2v2H50z M41,12v2h-2v-2H41z M27,9c0-0.6,0.4-1,1-1h8
	c0.6,0,1,0.4,1,1v8c0,0.6-0.4,1-1,1h-8c-0.6,0-1-0.4-1-1V9z M23,12h2v2h-2V12z M12,23h2v2h-2V23z M8,36v-8c0-0.6,0.4-1,1-1h8
	c0.6,0,1,0.4,1,1v8c0,0.6-0.4,1-1,1H9C8.4,37,8,36.6,8,36z M14,39v2h-2v-2H14z M23,52v-2h2v2H23z M37,55c0,0.6-0.4,1-1,1h-8
	c-0.6,0-1-0.4-1-1v-8c0-0.6,0.4-1,1-1h8c0.6,0,1,0.4,1,1V55z M39,52v-2h2v2H39z M50,47c0,1.7-1.3,3-3,3h-4c0-1.1-0.9-2-2-2h-2v-1
	c0-1.7-1.3-3-3-3h-8c-1.7,0-3,1.3-3,3v1h-2c-1.1,0-2,0.9-2,2h-4c-1.7,0-3-1.3-3-3v-4c1.1,0,2-0.9,2-2v-2h1c1.7,0,3-1.3,3-3v-8
	c0-1.7-1.3-3-3-3h-1v-2c0-1.1-0.9-2-2-2v-4c0-1.7,1.3-3,3-3h4c0,1.1,0.9,2,2,2h2v1c0,1.7,1.3,3,3,3h8c1.7,0,3-1.3,3-3v-1h2
	c1.1,0,2-0.9,2-2h4c1.7,0,3,1.3,3,3v4c-1.1,0-2,0.9-2,2v2h-1c-1.7,0-3,1.3-3,3v8c0,1.7,1.3,3,3,3h1v2c0,1.1,0.9,2,2,2V47z M52,41h-2
	v-2h2V41z M56,36c0,0.6-0.4,1-1,1h-8c-0.6,0-1-0.4-1-1v-8c0-0.6,0.4-1,1-1h8c0.6,0,1,0.4,1,1V36z"/>
</svg>
