<?xml version="1.0" encoding="utf-8"?>
<!-- Generator: Adobe Illustrator 21.0.2, SVG Export Plug-In . SVG Version: 6.00 Build 0)  -->
<svg version="1.1" id="Слой_1" xmlns="http://www.w3.org/2000/svg" xmlns:xlink="http://www.w3.org/1999/xlink" x="0px" y="0px"
	 viewBox="0 0 64 64" style="enable-background:new 0 0 64 64;" xml:space="preserve">
<style type="text/css">
	.st0{fill:#231F20;}
</style>
<path class="st0" d="M33,58h-2c-2.2,0-4-1.8-4-4v-1.2c0-0.9-0.6-1.6-1.4-1.9c-0.8-0.3-1.6-0.6-2.4-1c-0.8-0.4-1.8-0.3-2.4,0.3
	L20,51.1c-1.6,1.6-4.1,1.6-5.7,0l-1.4-1.4c-1.6-1.6-1.6-4.1,0-5.7l0.8-0.8c0.6-0.6,0.7-1.6,0.3-2.4c-0.4-0.8-0.7-1.6-1-2.4
	C12.8,37.6,12,37,11.2,37H10c-2.2,0-4-1.8-4-4v-2c0-2.2,1.8-4,4-4h1.2c0.9,0,1.6-0.6,1.9-1.4c0.3-0.8,0.6-1.6,1-2.4
	c0.4-0.8,0.3-1.8-0.3-2.4L12.9,20c-1.6-1.6-1.6-4.1,0-5.7l1.4-1.4c1.6-1.6,4.1-1.6,5.7,0l0.8,0.8c0.6,0.6,1.6,0.7,2.4,0.3
	c0.8-0.4,1.6-0.7,2.4-1c0.9-0.3,1.4-1.1,1.4-1.9V11c0-2.8,2.2-5,5-5v2c-1.7,0-3,1.3-3,3v0.2c0,1.7-1.1,3.2-2.8,3.8
	c-0.7,0.3-1.5,0.6-2.2,0.9c-1.6,0.8-3.5,0.5-4.7-0.7l-0.8-0.8c-0.8-0.8-2-0.8-2.8,0l-1.4,1.4c-0.8,0.8-0.8,2,0,2.8l0.8,0.8
	c1.2,1.2,1.5,3.1,0.7,4.7c-0.3,0.7-0.7,1.4-0.9,2.2c-0.6,1.7-2.1,2.8-3.8,2.8H10c-1.1,0-2,0.9-2,2v2c0,1.1,0.9,2,2,2h1.2
	c1.7,0,3.2,1.1,3.8,2.8c0.3,0.7,0.6,1.5,0.9,2.2c0.8,1.6,0.5,3.5-0.7,4.7l-0.8,0.8c-0.8,0.8-0.8,2,0,2.8l1.4,1.4
	c0.8,0.8,2,0.8,2.8,0l0.8-0.8c1.2-1.2,3.1-1.5,4.7-0.7c0.7,0.3,1.4,0.7,2.2,0.9c1.7,0.6,2.8,2.1,2.8,3.8V54c0,1.1,0.9,2,2,2h2
	c1.1,0,2-0.9,2-2v-1.2c0-1.7,1.1-3.2,2.8-3.8c0.7-0.3,1.5-0.6,2.2-0.9c1.6-0.8,3.5-0.5,4.7,0.7l0.8,0.8c0.8,0.8,2,0.8,2.8,0l1.4-1.4
	c0.8-0.8,0.8-2,0-2.8l-0.9-0.9c-1.2-1.2-1.5-3-0.7-4.6c0.4-0.7,0.7-1.5,0.9-2.2c0.6-1.7,2.1-2.8,3.8-2.8H53c1.7,0,3-1.3,3-3h2
	c0,2.8-2.2,5-5,5h-0.2c-0.9,0-1.6,0.6-1.9,1.4c-0.3,0.8-0.6,1.7-1,2.5c-0.4,0.8-0.3,1.7,0.3,2.2l0.9,0.9c1.6,1.6,1.6,4.1,0,5.7
	l-1.4,1.4c-1.6,1.6-4.1,1.6-5.7,0l-0.8-0.8c-0.6-0.6-1.6-0.7-2.4-0.3c-0.8,0.4-1.6,0.7-2.4,1C37.6,51.2,37,52,37,52.8V54
	C37,56.2,35.2,58,33,58z"/>
<path class="st0" d="M32,48c-8.8,0-16-7.2-16-16s7.2-16,16-16v2c-7.7,0-14,6.3-14,14s6.3,14,14,14s14-6.3,14-14h2
	C48,40.8,40.8,48,32,48z"/>
<path class="st0" d="M46,30c-1.7,0-3-1.3-3-3v-0.5c-0.3-0.1-0.6-0.2-0.8-0.3l-0.4,0.4c-1.1,1.1-3.1,1.1-4.2,0
	c-0.6-0.6-0.9-1.3-0.9-2.1c0-0.8,0.3-1.6,0.9-2.1l0.4-0.4c-0.1-0.3-0.3-0.6-0.3-0.8L37,21c-1.7,0-3-1.3-3-3s1.3-3,3-3h0.5
	c0.1-0.3,0.2-0.6,0.3-0.8l-0.3-0.4c-0.6-0.6-0.9-1.3-0.9-2.1c0-0.8,0.3-1.6,0.9-2.1c1.1-1.1,3.1-1.1,4.2,0l0.4,0.4
	c0.3-0.1,0.6-0.3,0.8-0.3L43,9c0-1.7,1.3-3,3-3s3,1.3,3,3v0.5c0.3,0.1,0.6,0.2,0.8,0.3l0.4-0.4c1.1-1.1,3.1-1.1,4.2,0
	c0.6,0.6,0.9,1.3,0.9,2.1c0,0.8-0.3,1.6-0.9,2.1l-0.4,0.4c0.1,0.3,0.3,0.6,0.3,0.8l0.5,0c1.7,0,3,1.3,3,3s-1.3,3-3,3h-0.5
	c-0.1,0.3-0.2,0.6-0.3,0.8l0.3,0.4c0.6,0.6,0.9,1.3,0.9,2.1c0,0.8-0.3,1.6-0.9,2.1c-1.1,1.1-3.1,1.1-4.2,0l-0.4-0.4
	c-0.3,0.1-0.6,0.3-0.8,0.3l0,0.5C49,28.7,47.7,30,46,30z M42.1,24.1c0.3,0,0.6,0.1,0.9,0.2c0.2,0.1,0.4,0.2,0.6,0.3
	c0.8,0.3,1.4,1,1.4,1.9V27c0,0.6,0.4,1,1,1s1-0.4,1-1v-0.5c0-0.9,0.5-1.6,1.4-1.9c0.2-0.1,0.4-0.2,0.6-0.3c0.8-0.4,1.7-0.2,2.3,0.4
	l0.4,0.4c0.4,0.4,1,0.4,1.4,0c0.2-0.2,0.3-0.4,0.3-0.7c0-0.3-0.1-0.5-0.3-0.7l-0.4-0.4c-0.6-0.6-0.8-1.5-0.4-2.3
	c0.1-0.2,0.2-0.4,0.3-0.6c0.3-0.8,1-1.4,1.9-1.4H55c0.6,0,1-0.4,1-1s-0.4-1-1-1h-0.5c-0.9,0-1.6-0.5-1.9-1.4
	c-0.1-0.2-0.2-0.4-0.3-0.6c-0.4-0.8-0.2-1.7,0.4-2.3l0.4-0.4c0.2-0.2,0.3-0.4,0.3-0.7c0-0.3-0.1-0.5-0.3-0.7c-0.4-0.4-1-0.4-1.4,0
	l-0.4,0.4c-0.6,0.6-1.5,0.8-2.3,0.4c-0.2-0.1-0.4-0.2-0.6-0.3c-0.8-0.3-1.4-1-1.4-1.9V9c0-0.6-0.4-1-1-1s-1,0.4-1,1v0.5
	c0,0.9-0.5,1.6-1.4,1.9c-0.2,0.1-0.4,0.2-0.6,0.3c-0.8,0.4-1.7,0.2-2.3-0.4l-0.4-0.4c-0.4-0.4-1-0.4-1.4,0c-0.2,0.2-0.3,0.4-0.3,0.7
	c0,0.3,0.1,0.5,0.3,0.7l0.4,0.4c0.6,0.6,0.8,1.5,0.4,2.3c-0.1,0.2-0.2,0.4-0.3,0.6c-0.3,0.8-1,1.4-1.9,1.4H37c-0.6,0-1,0.4-1,1
	s0.4,1,1,1h0.5c0.9,0,1.6,0.5,1.9,1.4c0.1,0.2,0.2,0.4,0.3,0.6c0.4,0.8,0.2,1.7-0.4,2.3l-0.4,0.4c-0.2,0.2-0.3,0.4-0.3,0.7
	c0,0.3,0.1,0.5,0.3,0.7c0.4,0.4,1,0.4,1.4,0l0.4-0.4C41.1,24.3,41.6,24.1,42.1,24.1z"/>
<path class="st0" d="M46,22c-2.2,0-4-1.8-4-4s1.8-4,4-4s4,1.8,4,4S48.2,22,46,22z M46,16c-1.1,0-2,0.9-2,2s0.9,2,2,2s2-0.9,2-2
	S47.1,16,46,16z"/>
<path class="st0" d="M32,38c-3.3,0-6-2.7-6-6s2.7-6,6-6s6,2.7,6,6S35.3,38,32,38z M32,27.9c-2.3,0-4.1,1.8-4.1,4.1s1.8,4.1,4.1,4.1
	s4.1-1.8,4.1-4.1S34.3,27.9,32,27.9z"/>
</svg>
