<?xml version="1.0" standalone="no"?>
<!DOCTYPE svg PUBLIC "-//W3C//DTD SVG 1.1//EN" "http://www.w3.org/Graphics/SVG/1.1/DTD/svg11.dtd" >
<svg xmlns="http://www.w3.org/2000/svg" xmlns:xlink="http://www.w3.org/1999/xlink" version="1.1" viewBox="0 0 512 512">
  <g transform="matrix(1 0 0 -1 0 512)">
   <path fill="currentColor"
d="M300 361q-5 7 -5 13v60q0 35 -14 39h-143q-16 0 -28 -11.5t-12 -28.5v-354q0 -17 12 -28.5t28 -11.5h236q16 0 28 11.5t12 28.5v256q0 13 -10 16t-30 3h-59q-5 0 -11 4l-1 3h-3zM385 444q4 -5 14 -15q21 -21 30 -31t16.5 -22t7.5 -22v-275q0 -33 -23 -56t-56 -23h-236
q-33 0 -56 23t-23 56v354q0 33 23 56t56 23h157q23 0 75 -54q10 -10 15 -14zM374 191v29l-35 6q-2 8 -10 24l20 29l-20 20l-29 -22q-11 7 -23 10l-6 35h-30l-4 -35q-17 -4 -23 -10l-29 20l-22 -20l20 -29q-4 -6 -8 -22l-35 -6v-29l35 -6q3 -16 10 -23l-20 -30l21 -21l30 19
l11 -4q8 -4 12 -5l2 -34h30l6 36q4 1 13 5l10 4l29 -19l22 21l-22 28q9 17 10 23zM257 166q-17 0 -28 11t-11 27.5t11.5 28t27.5 11.5t27.5 -11.5t11.5 -27.5t-11.5 -27.5t-27.5 -11.5z" />
  </g>

</svg>
