<?xml version="1.0" encoding="utf-8"?>
<!-- Generator: Adobe Illustrator 21.0.2, SVG Export Plug-In . SVG Version: 6.00 Build 0)  -->
<svg version="1.1" id="Слой_1" xmlns="http://www.w3.org/2000/svg" xmlns:xlink="http://www.w3.org/1999/xlink" x="0px" y="0px"
	 viewBox="0 0 500 500" style="enable-background:new 0 0 500 500;" xml:space="preserve">
<style type="text/css">
	.st0{fill:#231F20;}
</style>
<path class="st0" d="M382.8,148.4H202c-3.5-13.4-15.6-23.4-30.1-23.4s-26.6,10-30.1,23.4h-24.5V164h24.5
	c3.5,13.4,15.6,23.4,30.1,23.4s26.6-10,30.1-23.4h180.8V148.4z M171.9,171.9c-8.6,0-15.6-7-15.6-15.6s7-15.6,15.6-15.6
	s15.6,7,15.6,15.6S180.5,171.9,171.9,171.9z"/>
<path class="st0" d="M358.3,226.6h24.5V211h-24.5c-3.5-13.4-15.6-23.4-30.1-23.4s-26.6,10-30.1,23.4H117.2v15.6H298
	c3.5,13.4,15.6,23.4,30.1,23.4S354.8,240,358.3,226.6z M312.5,218.8c0-8.6,7-15.6,15.6-15.6s15.6,7,15.6,15.6s-7,15.6-15.6,15.6
	S312.5,227.4,312.5,218.8z"/>
<path class="st0" d="M242.2,250c-14.5,0-26.6,10-30.1,23.4h-94.9V289H212c3.5,13.4,15.6,23.4,30.1,23.4s26.6-10,30.1-23.4H382v-15.6
	H272.3C268.8,260,256.7,250,242.2,250z M242.2,296.9c-8.6,0-15.6-7-15.6-15.6s7-15.6,15.6-15.6s15.6,7,15.6,15.6
	S250.8,296.9,242.2,296.9z"/>
<path class="st0" d="M327.1,375c14.5,0,26.6-10,30.1-23.4h24.9V336h-24.9c-3.5-13.4-15.6-23.4-30.1-23.4s-26.6,10-30.1,23.4H117.2
	v15.6H297C300.5,365,312.6,375,327.1,375z M327.1,328.1c8.6,0,15.6,7,15.6,15.6s-7,15.6-15.6,15.6s-15.6-7-15.6-15.6
	S318.5,328.1,327.1,328.1z"/>
<path class="st0" d="M414.1,453.1H85.9c-21.5,0-39.1-17.5-39.1-39.1V85.9c0-21.5,17.5-39.1,39.1-39.1H414
	c21.5,0,39.1,17.5,39.1,39.1V414C453.1,435.6,435.6,453.1,414.1,453.1z M85.9,62.5C73,62.5,62.5,73,62.5,85.9V414
	c0,12.9,10.5,23.4,23.4,23.4H414c12.9,0,23.4-10.5,23.4-23.4V85.9c0-12.9-10.5-23.4-23.4-23.4H85.9z"/>
</svg>
