<?xml version="1.0" encoding="utf-8"?>
<!-- Generator: Adobe Illustrator 21.0.2, SVG Export Plug-In . SVG Version: 6.00 Build 0)  -->
<svg version="1.1" id="Layer_1" xmlns="http://www.w3.org/2000/svg" xmlns:xlink="http://www.w3.org/1999/xlink" x="0px" y="0px"
	 viewBox="0 0 500 500" style="enable-background:new 0 0 500 500;" xml:space="preserve">
<style type="text/css">
	.st0{fill:#231F20;}
</style>
<g id="surface1">
	<path class="st0" d="M201.9,57.3c-43.8,0.8-71.8,18.5-83.8,46c-11.5,26.2-8.9,59.3-0.6,93.5c-4.5,5.2-8,12.3-6.7,22.9
		c1.4,11.5,4.6,19.7,9.1,25.5c2.5,3.1,5.8,3.4,8.8,5c1.6,9.8,4.4,19.6,8.5,27.8c2.3,4.7,5,9.1,7.6,12.6c1.2,1.6,2.9,2.5,4.1,3.8
		c0.1,11.6,0.1,21.2-0.9,33.4c-3,7.4-10.1,13.3-21.7,19c-11.9,5.9-27.4,11.4-43.1,18.2S51.5,380,38.7,392.8S17,423.4,15.6,446.8
		l-0.6,10h376.2l-0.6-10c-1-16.2-5.6-29.7-12.6-40.7h107l-0.6-10c-1.2-20-9-35.5-19.9-46.6c-10.9-11.1-24.6-18-37.8-23.7
		s-26.2-10-36-14.9c-9.5-4.8-14.9-9.6-17.3-15.2c-0.8-9.9-1-17.9-0.9-27.3c0.9-1,2.4-1.8,3.2-2.9c2.2-3.1,4.5-6.8,6.4-10.8
		c3.3-6.8,5.6-14.9,7-23.1c2.5-1.4,5.1-1.6,7-4.1c4-5.1,6.7-12.1,7.9-22V205c1-8.6-1.8-14.3-5.3-19c3.9-12.7,8.6-32.7,7-53.6
		c-0.9-11.5-3.8-23.1-10.8-32.8c-6.7-9.2-17.6-16-31.4-18.5c-8.9-9.9-23-14.4-39.6-14.4c-22.7,0.4-40.4,6-53.3,16.1
		c-5.9-3.7-12.8-6.3-20.5-7.9c-9.9-12.8-27.6-17.6-48.1-17.6H201.9z M202.2,76.1c0.1,0,0.2,0,0.3,0c18.9,0.1,31.1,5.6,34.6,11.7
		l2.3,3.8l4.4,0.6c13,1.8,20.5,7.1,25.8,14.4s8.2,17.5,9.1,28.7c1.8,22.5-4.7,48.7-8.8,60.9l-2.3,7.3l6.4,3.8
		c-0.4-0.3,3.6,2.5,2.6,10.3c-1.1,9.2-3.3,14-5,16.1c-1.7,2.2-2.6,2.1-2.6,2.1l-7.9,0.6l-0.9,7.6c-0.9,8.1-4.1,18-7.9,25.8
		c-1.9,3.9-3.8,7.3-5.6,9.7s-3.6,3.7-2.6,3.2l-5,2.6v5.6c0,13.6-0.5,24.7,0.9,40.4v1.2l0.6,1.2C246,348,258.4,357,272,363.8
		c13.6,6.8,29.3,11.8,44,18.2c12.6,5.4,24.1,11.9,33.4,19.9c0,0,0,0.3,0,0.3c0.4,0.4,1,0.8,1.5,1.2c0.6,0.7,1.3,1.3,2.1,1.8
		c0,0,0.3,0,0.3,0c0.3,0.3,0.6,0.6,0.9,0.9c7.9,8,12.9,18.6,15.5,31.9H36.7c2.6-13.3,7.6-23.9,15.5-31.9c10-10.1,23.6-17.7,38.4-24
		c14.8-6.3,30.3-11.4,44-18.2s26.3-15.8,31.6-30.2l0.6-2.3c1.4-15.7,0.9-26.8,0.9-40.4v-5.6l-5-2.6c0.8,0.4-1.2-0.8-2.9-3.2
		s-3.9-5.8-5.9-9.7C150,262,146.8,252,146,244l-0.9-7.6l-7.9-0.6c-0.1,0-1,0.1-2.6-2.1c-1.7-2.2-3.9-6.9-5-16.1
		c-0.9-7.8,3-10.5,2.6-10.3l6.2-3.8l-1.8-6.7c-8.8-34-10.4-64.9-1.2-85.9C144.6,90,163.3,76.9,202.2,76.1z M324.1,85.5
		c0.1,0,0.2,0,0.3,0c15.6,0.1,25.3,4.7,27.8,9.1l2.3,3.8l4.4,0.9c10.7,1.5,16.6,5.3,20.8,11.1s6.6,14.1,7.3,23.4
		c1.5,18.6-4,40.8-7.3,51l-2.3,7l6.4,3.8c-0.8-0.5,2.5,1.3,1.8,7.3c-0.9,7.6-2.9,11.4-4.1,12.9c-1.2,1.5-1.5,1.2-1.2,1.2l-7.9,0.6
		l-0.6,7.6c-0.7,6.6-3.6,14.7-6.7,21.1c-1.6,3.2-3,6-4.4,7.9c-0.8,1.1-1.4,2-1.8,2.3h-0.3c0,0,0,0.3,0,0.3l-5,2.3v5.6
		c0,11.4-0.3,21,0.9,34.3v1.2l0.6,1.2c4.7,12.6,15.6,20.3,27.3,26.1c11.6,5.8,24.6,10.2,36.9,15.5c12.3,5.3,23.5,11.4,31.6,19.6
		c6.2,6.3,10,14.6,12.3,24.6h-102c-11.5-9.8-24.9-16.6-38.1-22.3c-15.6-6.7-30.9-12.2-42.8-18.2c-11.4-5.7-18.6-11.5-21.7-18.8
		c-1-12.3-1-22-0.9-33.7c1.2-1.3,3-2.2,4.1-3.8c2.6-3.6,5-7.9,7.3-12.6c4-8.2,6.9-18.1,8.5-27.8c2.9-1.5,6.1-1.9,8.5-5
		c4.5-5.8,7.7-14,9.1-25.5c1.2-10.3-2.2-17-6.4-22.3c4.6-14.9,10.4-38.9,8.5-63.6c-1.1-13.5-4.5-26.9-12.6-38.1c0-0.1,0-0.2,0-0.3
		C293.7,89.6,306.3,85.8,324.1,85.5z"/>
</g>
</svg>
