<?xml version="1.0" standalone="no"?>
<!DOCTYPE svg PUBLIC "-//W3C//DTD SVG 1.1//EN" "http://www.w3.org/Graphics/SVG/1.1/DTD/svg11.dtd" >
<svg xmlns="http://www.w3.org/2000/svg" xmlns:xlink="http://www.w3.org/1999/xlink" version="1.1" viewBox="0 0 512 512">
  <g transform="matrix(1 0 0 -1 0 512)">
   <path fill="currentColor"
d="M192 427q-18 0 -30.5 -12.5t-12.5 -30.5t12.5 -30.5t30.5 -12.5t30.5 12.5t12.5 30.5t-12.5 30.5t-30.5 12.5zM320 427q-18 0 -30.5 -12.5t-12.5 -30.5t12.5 -30.5t30.5 -12.5t30.5 12.5t12.5 30.5t-12.5 30.5t-30.5 12.5zM128 320q-17 0 -30 -12.5t-13 -30t13 -30
t30 -12.5t30 12.5t13 30t-13 30t-30 12.5zM384 320q-17 0 -30 -12.5t-13 -30t13 -30t30 -12.5t30 12.5t13 30t-13 30t-30 12.5zM256 256q-17 0 -30 -12.5t-13 -30t13 -30t30 -12.5t30 12.5t13 30t-13 30t-30 12.5zM128 213q-26 0 -44.5 -11.5t-24.5 -23.5l-6 -11v-18h150v18
q-2 5 -6.5 12.5t-23.5 20.5t-45 13zM384 213q-26 0 -44.5 -11.5t-24.5 -23.5l-6 -11v-18h150v18q-2 5 -6.5 12.5t-23.5 20.5t-45 13zM256 149q-28 0 -49.5 -11.5t-28.5 -23.5l-7 -11v-18h170v18q-2 5 -7.5 12.5t-27.5 20.5t-50 13z" />
  </g>

</svg>
