<?xml version="1.0" standalone="no"?>
<!DOCTYPE svg PUBLIC "-//W3C//DTD SVG 1.1//EN" "http://www.w3.org/Graphics/SVG/1.1/DTD/svg11.dtd" >
<svg xmlns="http://www.w3.org/2000/svg" xmlns:xlink="http://www.w3.org/1999/xlink" version="1.1" viewBox="0 0 512 512">
  <g transform="matrix(1 0 0 -1 0 512)">
   <path fill="currentColor"
d="M384 469h-256q-17 0 -30 -12.5t-13 -29.5v-235q0 -20 17 -34l154 -115l154 115q17 14 17 34v235q0 17 -13 29.5t-30 12.5zM256 384q18 0 30.5 -12.5t12.5 -30t-12.5 -30t-30.5 -12.5t-30.5 12.5t-12.5 30t12.5 30t30.5 12.5zM341 213h-170v17q3 5 9.5 13t28.5 21t47 13
t46 -11.5t30 -23.5l9 -12v-17z" />
  </g>

</svg>
