<svg width="34" height="34" viewBox="-1.5 0 34 34" xmlns="http://www.w3.org/2000/svg">
<path fill-rule="evenodd" clip-rule="evenodd" d="M15.3184 0.0341301C15.4544 -0.0189358 15.6081 -0.0101018 15.7383 0.0604973L30.7383 8.20308C30.7646 8.21736 30.7886 8.23455 30.8115 8.25288C30.8148 8.25548 30.8181 8.258 30.8213 8.26069C30.8406 8.27699 30.8585 8.29458 30.875 8.31343C30.8799 8.31896 30.885 8.32424 30.8896 8.33003C30.9073 8.3521 30.9228 8.37566 30.9365 8.40034C30.9382 8.4034 30.9407 8.40602 30.9424 8.40913C30.9443 8.41285 30.9454 8.4171 30.9473 8.42085C30.9577 8.44193 30.9662 8.46383 30.9736 8.48628C30.9761 8.49384 30.9793 8.50112 30.9814 8.50874C30.9887 8.53478 30.9931 8.56158 30.9961 8.58882C30.997 8.59695 30.9966 8.60509 30.9971 8.61323C30.9976 8.62292 31 8.63275 31 8.64253V24.5C30.9999 24.6832 30.8993 24.852 30.7383 24.9394L15.7383 33.082C15.7285 33.0873 15.718 33.091 15.708 33.0957C15.7011 33.0988 15.6945 33.1026 15.6875 33.1054C15.6636 33.1151 15.639 33.122 15.6143 33.1279C15.6036 33.1304 15.5929 33.1319 15.582 33.1337C15.5272 33.1429 15.4718 33.143 15.417 33.1337C15.4061 33.1319 15.3954 33.1304 15.3848 33.1279C15.36 33.122 15.3354 33.1151 15.3115 33.1054C15.3045 33.1026 15.2979 33.0988 15.291 33.0957C15.2813 33.0912 15.2712 33.0871 15.2617 33.082L0.261719 24.9394C0.100657 24.852 7.46241e-05 24.6832 0 24.5V8.64253C5.42972e-06 8.63276 0.00138309 8.6229 0.00195312 8.61323C0.00242215 8.60511 0.00205829 8.59694 0.00292969 8.58882C0.00587259 8.56163 0.0103553 8.53474 0.0175781 8.50874C0.019693 8.50113 0.0228965 8.49383 0.0253906 8.48628C0.0327809 8.46387 0.0413391 8.4419 0.0517578 8.42085C0.0536769 8.41697 0.0555878 8.41298 0.0576172 8.40913C0.0591874 8.40616 0.0608788 8.40327 0.0625 8.40034C0.0761475 8.37569 0.0917507 8.35208 0.109375 8.33003C0.114 8.32425 0.119177 8.31896 0.124023 8.31343C0.140499 8.29458 0.158447 8.27699 0.177734 8.26069C0.18093 8.258 0.184245 8.25548 0.1875 8.25288C0.210564 8.23436 0.235195 8.21748 0.261719 8.20308L15.2617 0.0604973L15.3184 0.0341301ZM1 24.2021L15 31.8017V16.872L1 9.47163V24.2021ZM16 16.872V31.8017L30 24.2021V9.47163L16 16.872ZM1.55762 8.63569L15.5 16.0048L29.4414 8.63569L15.5 1.06831L1.55762 8.63569Z" fill="currentColor"/>
</svg>
