<?xml version="1.0" encoding="utf-8"?>
<!-- Generator: Adobe Illustrator 21.0.2, SVG Export Plug-In . SVG Version: 6.00 Build 0)  -->
<svg version="1.1" id="Слой_1" xmlns="http://www.w3.org/2000/svg" xmlns:xlink="http://www.w3.org/1999/xlink" x="0px" y="0px"
	 viewBox="0 0 500 500" style="enable-background:new 0 0 500 500;" xml:space="preserve">
<style type="text/css">
	.st0{fill:#231F20;}
</style>
<path class="st0" d="M406.2,54.7H93.8c-21.5,0-39.1,17.5-39.1,39.1v312.5c0,21.5,17.5,39.1,39.1,39.1h312.5
	c21.5,0,39.1-17.5,39.1-39.1V93.8C445.3,72.2,427.8,54.7,406.2,54.7z M429.7,406.2c0,12.9-10.5,23.4-23.4,23.4H93.8
	c-12.9,0-23.4-10.5-23.4-23.4V93.8c0-12.9,10.5-23.4,23.4-23.4h312.5c12.9,0,23.4,10.5,23.4,23.4V406.2z"/>
<path class="st0" d="M226.6,257.8h-93.8c-8.6,0-15.6,7-15.6,15.6v93.8c0,8.6,7,15.6,15.6,15.6h93.8c8.6,0,15.6-7,15.6-15.6v-93.8
	C242.2,264.8,235.2,257.8,226.6,257.8z M132.8,367.2v-93.8h93.8l0,93.8H132.8z"/>
<path class="st0" d="M367.2,117.2h-93.8c-8.6,0-15.6,7-15.6,15.6v93.8c0,8.6,7,15.6,15.6,15.6h93.8c8.6,0,15.6-7,15.6-15.6v-93.8
	C382.8,124.2,375.8,117.2,367.2,117.2z M273.4,226.6v-93.8h93.8l0,93.8H273.4z"/>
<path class="st0" d="M330.3,159.7h-20c-5.5,0-10,4.5-10,10v20c0,5.5,4.5,10,10,10h20c5.5,0,10-4.5,10-10v-20
	C340.3,164.2,335.8,159.7,330.3,159.7z M310.3,189.7v-20h20l0,20H310.3z"/>
<path class="st0" d="M226.6,117.2h-93.8c-8.6,0-15.6,7-15.6,15.6v93.8c0,8.6,7,15.6,15.6,15.6h93.8c8.6,0,15.6-7,15.6-15.6v-93.8
	C242.2,124.2,235.2,117.2,226.6,117.2z M132.8,226.6v-93.8h93.8l0,93.8H132.8z"/>
<path class="st0" d="M189.7,160.9h-20c-5.5,0-10,4.5-10,10v20c0,5.5,4.5,10,10,10h20c5.5,0,10-4.5,10-10v-20
	C199.7,165.4,195.2,160.9,189.7,160.9z M169.7,190.9v-20h20l0,20H169.7z"/>
<path class="st0" d="M367.2,257.8h-93.8c-8.6,0-15.6,7-15.6,15.6v93.8c0,8.6,7,15.6,15.6,15.6h93.8c8.6,0,15.6-7,15.6-15.6v-93.8
	C382.8,264.8,375.8,257.8,367.2,257.8z M273.4,367.2v-93.8h93.8l0,93.8H273.4z"/>
<path class="st0" d="M330.3,302.3h-20c-5.5,0-10,4.5-10,10v20c0,5.5,4.5,10,10,10h20c5.5,0,10-4.5,10-10v-20
	C340.3,306.8,335.8,302.3,330.3,302.3z M310.3,332.3v-20h20l0,20H310.3z"/>
<path class="st0" d="M189.7,303.6h-20c-5.5,0-10,4.5-10,10v20c0,5.5,4.5,10,10,10h20c5.5,0,10-4.5,10-10v-20
	C199.7,308,195.2,303.6,189.7,303.6z M169.7,333.6v-20h20l0,20H169.7z"/>
</svg>
