<?xml version="1.0" encoding="utf-8"?>
<!-- Generator: Adobe Illustrator 21.0.2, SVG Export Plug-In . SVG Version: 6.00 Build 0)  -->
<svg version="1.1" id="Слой_1" xmlns="http://www.w3.org/2000/svg" xmlns:xlink="http://www.w3.org/1999/xlink" x="0px" y="0px"
	 viewBox="0 0 500 500" style="enable-background:new 0 0 500 500;" xml:space="preserve">
<style type="text/css">
	.st0{fill:#231F20;}
</style>
<circle class="st0" cx="250" cy="250" r="31.2"/>
<path class="st0" d="M454.1,250c0-32.4-66.5-52.8-143.3-59.8c-7-76.8-27.5-143.3-59.8-143.3s-52.8,66.5-59.8,143.3
	c-76.8,7-143.3,27.5-143.3,59.8s66.5,52.8,143.3,59.8c7,76.8,27.5,143.3,59.8,143.3s52.8-66.5,59.8-143.3
	C387.6,302.8,454.1,282.4,454.1,250z M251,62.5c15.9,0,36.8,46.9,44.2,126.5c-14.6-1-29.5-1.5-44.2-1.5s-29.5,0.5-44.2,1.5
	C214.2,109.4,235.1,62.5,251,62.5z M297.9,250c0,16-0.6,31.1-1.5,45.4c-14.3,0.9-29.3,1.5-45.4,1.5s-31.1-0.6-45.4-1.5
	c-0.9-14.3-1.5-29.3-1.5-45.4s0.6-31.1,1.5-45.4c14.3-0.9,29.3-1.5,45.4-1.5s31.1,0.6,45.4,1.5C297.3,218.9,297.9,234,297.9,250z
	 M63.5,250c0-15.9,46.9-36.8,126.5-44.2c-1,14.6-1.5,29.5-1.5,44.2c0,14.7,0.5,29.5,1.5,44.2C110.4,286.8,63.5,265.9,63.5,250z
	 M251,437.5c-15.9,0-36.8-46.9-44.2-126.5c14.6,1,29.5,1.5,44.2,1.5c14.7,0,29.5-0.5,44.2-1.5C287.8,390.6,266.9,437.5,251,437.5z
	 M312,294.2c1-14.6,1.5-29.5,1.5-44.2s-0.5-29.5-1.5-44.2c79.6,7.4,126.5,28.3,126.5,44.2S391.6,286.8,312,294.2z"/>
<path class="st0" d="M394.6,393.6c22.9-22.9-9.7-84.4-59-143.6c49.4-59.3,81.9-120.8,59-143.6c-22.8-22.8-84.4,9.7-143.6,59
	c-59.3-49.4-120.8-81.9-143.6-59s9.7,84.4,59,143.6c-49.4,59.3-81.9,120.8-59,143.6c22.8,22.8,84.4-9.7,143.6-59
	C310.3,383.9,371.7,416.5,394.6,393.6z M383.6,117.4c11.2,11.2-7.1,59.2-58.2,120.7c-9.6-11-19.8-21.9-30.2-32.3
	c-10.4-10.4-21.2-20.5-32.3-30.2C324.4,124.6,372.3,106.2,383.6,117.4z M284.2,283.2c-11.3,11.3-22.4,21.6-33.2,31
	c-10.7-9.5-21.8-19.7-33.2-31c-11.4-11.4-21.6-22.4-31-33.2c9.5-10.7,19.7-21.8,31-33.2c11.4-11.4,22.4-21.6,33.2-31
	c10.7,9.5,21.8,19.7,33.2,31c11.4,11.4,21.6,22.4,31,33.2C305.7,260.7,295.5,271.8,284.2,283.2z M118.4,117.4
	c11.2-11.2,59.2,7.1,120.7,58.2c-11,9.6-21.9,19.8-32.3,30.2c-10.4,10.4-20.5,21.2-30.2,32.3C125.6,176.6,107.2,128.7,118.4,117.4z
	 M118.4,382.6c-11.2-11.2,7.1-59.2,58.2-120.7c9.6,11,19.8,21.9,30.2,32.3s21.2,20.5,32.3,30.2C177.6,375.4,129.7,393.8,118.4,382.6
	z M262.9,324.4c11-9.6,21.9-19.8,32.3-30.2s20.5-21.2,30.2-32.3c51.1,61.5,69.4,109.5,58.2,120.7
	C372.3,393.8,324.4,375.4,262.9,324.4z"/>
</svg>
