<?xml version="1.0" encoding="utf-8"?>
<!-- Generator: Adobe Illustrator 21.0.2, SVG Export Plug-In . SVG Version: 6.00 Build 0)  -->
<svg version="1.1" id="Layer_1" xmlns="http://www.w3.org/2000/svg" xmlns:xlink="http://www.w3.org/1999/xlink" x="0px" y="0px"
	 viewBox="0 0 480 480" style="enable-background:new 0 0 480 480;" xml:space="preserve">
<g id="surface1">
	<path d="M83.8,175.8H240v15.6H83.8V175.8z M83.8,207h125v15.6h-125V207z M83.8,269.1H240v15.6H83.8V269.1z M83.8,300.4h125V316
		h-125V300.4z M404.1,443.1H75.9c-21.5,0-39.1-17.5-39.1-39.1V75.9c0-21.5,17.5-39.1,39.1-39.1H404c21.5,0,39.1,17.5,39.1,39.1V404
		C443.1,425.6,425.6,443.1,404.1,443.1z M75.9,52.5C63,52.5,52.5,63,52.5,75.9V404c0,12.9,10.5,23.4,23.4,23.4H404
		c12.9,0,23.4-10.5,23.4-23.4V75.9c0-12.9-10.5-23.4-23.4-23.4H75.9z M43.9,104.1h383.5v15.4H43.9V104.1z M327,257.3
		c-23.1,0-42,18.9-42,42v6h-12c-6.6,0-12,5.4-12,12v66c0,6.6,5.4,12,12,12h108c6.6,0,12-5.4,12-12v-66c0-6.6-5.4-12-12-12h-12v-6
		C369,276.2,350.1,257.3,327,257.3z M327,271.7c15.3,0,27.7,11.4,27.7,26.7v6.5h-55.3v-6.5C299.3,283.1,311.7,271.7,327,271.7z
		 M276,320.1h102v61.2H276V320.1z M327,332.3c-6.6,0-12,5.4-12,12c0,4.3,2.3,8.2,6,10.4v13.6h12v-13.6c3.7-2.2,6-6.1,6-10.4
		C339,337.7,333.6,332.3,327,332.3z"/>
</g>
</svg>
