<?xml version="1.0" standalone="no"?>
<!DOCTYPE svg PUBLIC "-//W3C//DTD SVG 1.1//EN" "http://www.w3.org/Graphics/SVG/1.1/DTD/svg11.dtd" >
<svg xmlns="http://www.w3.org/2000/svg" xmlns:xlink="http://www.w3.org/1999/xlink" version="1.1" viewBox="0 0 512 512">
  <g transform="matrix(1 0 0 -1 0 512)">
   <path fill="currentColor"
d="M10 501v1l-3 1l-1 -3l2 -1v-6l-2 -1l1 -3l3 1v1l4 -3l1 -3h2l1 3l4 3v-1l3 -1l1 3l-2 1v6l2 1l-1 3l-3 -1v-1l-4 3l-1 3h-2l-1 -3l-3 -2zM14 509h5l1 -4l1 -1l5 1v-1l3 -4h-1l-2 -2v-4l2 -2h1l-3 -4v-1l-5 1l-1 -1l-1 -4h-6l-1 4l-1 1l-5 -1v1l-3 4h1l2 2v4l-2 2h-1l3 4
v1l5 -1l1 1l1 4h1zM21 496q0 -5 -5 -5t-5 5t5 5t5 -5zM13 496q0 -3 3 -3t3 3t-3 3t-3 -3zM211 462l-2 -13l-9 -47q-23 -9 -41 -24l-59 19l-6 -11l-32 -54l-6 -12l45 -39q-3 -12 -3 -25t3 -25l-45 -39l6 -12l32 -54l6 -11l59 19q18 -15 41 -24l9 -47l2 -13h90l2 13l9 47
q23 9 41 24l59 -19l6 11l32 54l6 12l-45 39q3 12 3 25t-3 25l45 39l-6 12l-32 54l-6 11l-59 -19q-18 15 -41 24l-9 47l-2 13h-90zM237 430h38l10 -50l9 -3q28 -9 48 -28l6 -6l49 16l19 -32l-31 -28l-8 -6l3 -9q3 -14 3 -28t-3 -28l-2 -9l38 -34l-19 -32l-49 16l-6 -6
q-20 -19 -48 -28l-9 -3l-10 -50h-38l-10 50l-9 3q-28 9 -48 28l-6 6l-49 -16l-19 32l31 28l8 6l-3 9q-3 14 -3 28t3 28l3 9l-8 6l-31 28l19 32l49 -16l6 6q20 19 48 28l9 3l2 9zM256 335q-33 0 -56 -23t-23 -56t23 -56t56 -23t56 23t23 56t-23 56t-56 23zM256 303
q20 0 33.5 -13.5t13.5 -33.5t-13.5 -33.5t-33.5 -13.5t-33.5 13.5t-13.5 33.5t13.5 33.5t33.5 13.5z" />
  </g>

</svg>
