<?xml version="1.0" standalone="no"?>
<!DOCTYPE svg PUBLIC "-//W3C//DTD SVG 1.1//EN" "http://www.w3.org/Graphics/SVG/1.1/DTD/svg11.dtd" >
<svg xmlns="http://www.w3.org/2000/svg" xmlns:xlink="http://www.w3.org/1999/xlink" version="1.1" viewBox="0 0 512 512">
  <g transform="matrix(1 0 0 -1 0 512)">
   <path fill="currentColor"
d="M256 469q-88 0 -150.5 -62.5t-62.5 -150.5t62.5 -150.5t150.5 -62.5t150.5 62.5t62.5 150.5t-62.5 150.5t-150.5 62.5zM256 427q70 0 120.5 -50.5t50.5 -120.5t-50.5 -120.5t-120.5 -50.5t-120.5 50.5t-50.5 120.5t50.5 120.5t120.5 50.5zM267 407v-23q3 0 9.5 -1t9.5 -1
l4 21q-3 1 -11 2t-12 2zM224 403q-3 -1 -23 -8l8 -20l19 7zM326 388l-65 -90l-5 1q-18 0 -30.5 -12.5t-12.5 -30.5t12.5 -30.5t30.5 -12.5t30.5 12.5t12.5 30.5q0 7 -4 17l66 90zM162 371q-3 -2 -9 -8t-8 -7l15 -15q2 3 15 13zM382 335l-17 -11q5 -8 8 -17l20 9l-2 6
q-2 3 -5 7zM119 318q-1 -3 -4 -10l-4 -11l21 -7l7 19zM405 271l-21 -2v-20h21v22zM107 252q0 -5 1 -12.5t1 -11.5l21 5q0 3 -1 9.5t-1 9.5h-21zM377 211q-1 -2 -4.5 -8.5t-5.5 -8.5l19 -11q2 3 5 10t6 12zM143 194l-17 -11q3 -10 11 -19l16 13q-7 9 -10 17z" />
  </g>

</svg>
