<?xml version="1.0" encoding="UTF-8"?>
<svg width="86px" height="77px" viewBox="0 0 86 77" version="1.1" xmlns="http://www.w3.org/2000/svg" xmlns:xlink="http://www.w3.org/1999/xlink">
    <!-- Generator: Sketch 44.1 (41455) - http://www.bohemiancoding.com/sketch -->
    <title>fixturecat</title>
    <desc>Created with Sketch.</desc>
    <defs></defs>
    <g id="Page-1" stroke="none" stroke-width="1" fill="none" fill-rule="evenodd">
        <g id="Artboard" transform="translate(-7.000000, -13.000000)" >
            <g id="fixturecat" transform="translate(7.000000, 7.000000)">
                <g id="Group" transform="translate(0.000000, 6.615385)" fill-rule="nonzero" fill="#000000">
                    <path d="M40.1279638,69.4615385 L76.0769562,69.4615385 C77.9028023,69.4615385 79.3846485,67.9796923 79.3846485,66.1538462 L79.3846485,19.8461538 C79.3846485,18.0203077 77.9028023,16.5384615 76.0769562,16.5384615 L9.92311,16.5384615 C8.09726385,16.5384615 6.61541769,18.0203077 6.61541769,19.8461538 L6.61541769,66.1538462 C6.61541769,67.9796923 8.09726385,69.4615385 9.92311,69.4615385 L13.7972777,69.4615385 C14.1728,69.5118815 14.5569885,69.53788 14.9482554,69.53788 L39.0944092,69.53788 C39.3721562,69.53788 39.7244915,69.5192246 40.1279638,69.4615385 Z M76.0769231,76.0769231 L9.92307692,76.0769231 C4.44553846,76.0769231 0,71.6313846 0,66.1538462 L0,23.1538462 L0,19.8461538 L0,9.92307692 C0,4.44553846 4.44553846,0 9.92307692,0 L26.4615385,0 C31.9390769,0 36.3846154,4.44553846 36.3846154,9.92307692 L76.0769231,9.92307692 C81.5544615,9.92307692 86,14.3686154 86,19.8461538 L86,66.1538462 C86,71.6313846 81.5544615,76.0769231 76.0769231,76.0769231 Z" id="Shape"></path>
                </g>
                <g id="Group" transform="translate(12.923077, 29.769231)" fill-rule="nonzero" fill="#000000">
                    <g id="Windows_x5F_8">
                        <path d="M34.9366838,21.5763415 C33.9443762,21.5763415 33.2828377,21.9071108 31.9597608,22.8994185 C30.3059146,24.2224954 29.3136069,24.8840338 28.9828377,23.2301877 C28.6520685,21.5763415 27.6597608,15.6224954 27.3289915,14.2994185 C26.9982223,13.3071108 26.6674531,12.6455723 25.6751454,12.3148031 C25.6751454,12.3148031 19.7212992,11.3224954 18.0674531,10.6609569 C16.7443762,10.3301877 16.0828377,9.66864923 17.0751454,7.68403385 C18.0674531,6.36095692 18.3982223,5.69941846 18.3982223,4.70711077 C18.3982223,2.06095692 16.4136069,0.0763415385 13.7674531,0.0763415385 C11.1212992,0.0763415385 9.13668385,2.06095692 9.13668385,4.70711077 C9.13668385,5.69941846 9.46745308,6.69172615 10.1289915,7.68403385 C11.4520685,9.66864923 10.79053,10.3301877 9.13668385,10.6609569 C7.15206846,10.9917262 1.52899154,12.3148031 1.52899154,12.3148031 C0.867453077,12.3148031 0.205914615,13.3071108 0.205914615,13.9686492 C0.205914615,13.9686492 0.205914615,16.2840338 0.205914615,22.5686492 C0.205914615,22.5686492 0.205914615,22.5686492 0.205914615,22.8994185 C0.536683846,24.5532646 1.85976077,23.5609569 3.18283769,22.5686492 C4.17514538,21.9071108 5.16745308,21.2455723 6.15976077,21.2455723 C8.80591462,21.2455723 10.79053,23.2301877 10.79053,25.8763415 C10.79053,28.5224954 8.80591462,30.5071108 6.15976077,30.5071108 C4.83668385,30.5071108 4.17514538,30.1763415 3.18283769,29.1840338 C2.19053,28.1917262 0.536683846,27.1994185 0.205914615,28.8532646 L0.205914615,29.1840338 C0.205914615,35.7994185 0.205914615,38.1148031 0.205914615,38.1148031 C0.205914615,39.1071108 0.867453077,39.7686492 1.85976077,39.7686492 L26.0059146,39.7686492 C26.9982223,39.7686492 27.3289915,39.1071108 27.6597608,38.1148031 C27.6597608,38.1148031 28.9828377,30.5071108 29.3136069,28.8532646 C29.6443762,27.1994185 30.6366838,27.8609569 32.29053,29.1840338 C33.2828377,29.8455723 34.2751454,30.5071108 35.2674531,30.5071108 C37.9136069,30.5071108 39.8982223,28.5224954 39.8982223,25.8763415 C39.5674531,23.5609569 37.5828377,21.5763415 34.9366838,21.5763415 Z" id="Shape"></path>
                    </g>
                </g>
            </g>
        </g>
    </g>
</svg>