<?xml version="1.0" encoding="utf-8"?>
<!-- Generator: Adobe Illustrator 21.0.2, SVG Export Plug-In . SVG Version: 6.00 Build 0)  -->
<svg version="1.1" id="Слой_1" xmlns="http://www.w3.org/2000/svg" xmlns:xlink="http://www.w3.org/1999/xlink" x="0px" y="0px"
	 viewBox="0 0 500 500" style="enable-background:new 0 0 500 500;" xml:space="preserve">
<style type="text/css">
	.st0{fill:#231F20;}
</style>
<path class="st0" d="M404.6,54.7H258.1h-16.3H95.4c-22.5,0-40.7,18.2-40.7,40.7v146.5v16.3v146.5c0,22.4,18.2,40.7,40.7,40.7h146.5
	h16.3h146.5c22.4,0,40.7-18.2,40.7-40.7V258.1v-16.3V95.4C445.3,72.9,427.1,54.7,404.6,54.7z M70.9,95.4C70.9,81.9,81.8,71,95.3,71
	h146.5v39.4c-5.2-1.9-10.7-2.8-16.3-2.8c-14.7,0-28.4,6.5-37.7,17.8c-9.3,11.4-13,26.3-10.1,40.8c3.6,18.4,18.5,33.5,37.1,37.7
	c9.3,2.1,18.5,1.5,27.1-1.7v39.5H193h-20.6l9.9,13c4.4,5.8,6.7,12.5,6.7,19.5c0,9.8-4.4,19-11.9,25.2c-7.7,6.3-17.4,8.6-27.4,6.7
	c-12.2-2.4-22.3-12.3-25-24.6c-2.1-9.5,0-19,5.8-26.8l9.9-13h-20.6H70.9V95.4z M241.9,429.1H95.4C82,429.1,71,418.2,71,404.7V258.1
	h39.4c-3.1,8.5-3.8,17.8-1.7,27.1c4.1,18.5,19.3,33.4,37.7,37.1c3.3,0.6,6.6,0.9,9.9,0.9c11.3,0,22.2-3.9,31-11
	c11.4-9.4,17.9-23.1,17.9-37.7c0-5.6-0.9-11-2.8-16.3H242v57v12.5l13-9.9c7.8-5.9,17.3-7.9,26.8-5.8c12.3,2.7,22.2,12.8,24.6,25
	c2,10-0.4,19.7-6.7,27.4c-10.6,13-30.8,15.7-44.7,5.2l-13-9.9v12.5L241.9,429.1L241.9,429.1L241.9,429.1z M429.1,404.6
	c0,13.4-10.9,24.4-24.4,24.4H258.1v-39.4c5.2,1.9,10.6,2.8,16.3,2.8c14.7,0,28.4-6.5,37.7-17.8c9.3-11.4,13-26.3,10.1-40.8
	c-3.6-18.4-18.5-33.5-37.1-37.7c-9.3-2.1-18.5-1.5-27.1,1.7v-39.5h48.9h20.6l-9.9-13c-5.8-7.8-7.9-17.3-5.8-26.8
	c2.7-12.3,12.8-22.2,25-24.6c10-2,19.7,0.4,27.4,6.7c7.6,6.3,11.9,15.4,11.9,25.2c0,7-2.3,13.8-6.7,19.5l-9.9,13h20.7h48.9V404.6z
	 M389.6,241.9c1.9-5.2,2.8-10.7,2.8-16.3c0-14.7-6.5-28.4-17.8-37.7c-11.4-9.3-26.3-13-40.8-10.1c-18.4,3.6-33.5,18.5-37.7,37.1
	c-2.1,9.3-1.5,18.5,1.7,27.1h-39.5v-57v-12.5l-13,9.9c-7.8,5.9-17.3,7.9-26.8,5.8c-12.3-2.7-22.2-12.8-24.6-25
	c-2-10,0.4-19.7,6.7-27.4c10.6-13,30.8-15.7,44.7-5.2l13,9.9v-20.7V70.9h146.5c13.4,0,24.4,10.9,24.4,24.4v146.5L389.6,241.9
	L389.6,241.9L389.6,241.9z"/>
</svg>
