<?xml version="1.0" encoding="UTF-8"?>
<svg data-name="Layer 1" version="1.1" viewBox="0 0 500 500" xmlns="http://www.w3.org/2000/svg">
 <path d="m254.28 303.41c-0.50074-2.8223-0.39948-103.6 0.0975-105.52h27.162v77.765c1.1717 0.0608 2.0912 0.14921 3.0108 0.15005q16.128 0.0147 32.256 7e-3h2.9073v27.596zm-96.707-0.04025v-105.17c1.617-0.52913 61.545-0.73586 65.462-0.20457v22.414c-0.87869 0.063-1.7857 0.18341-2.6928 0.18454q-16.009 0.0199-32.017 9e-3h-2.9677v17.434h33.347v23.192h-33.048c-0.55339 1.9851-0.70531 15.817-0.25622 19.646 0.84488 0.0568 1.75 0.16952 2.6553 0.17059q16.009 0.0186 32.017 8e-3h2.9694v22.321zm-59.941-105.49h27.263c0.55054 1.7525 0.65821 102.97 0.0947 105.52h-27.288c-0.15021-6.7034-0.04736-13.384-0.06622-20.061-0.01871-6.6226-0.0041-13.245-0.0041-20.04h-33.788v39.741c-2.0595 0.61518-25.334 0.67417-27.648 0.123v-105.28h27.538v37.189c1.9679 0.56844 30.923 0.67339 33.872 0.12942 0.0082-2.9771 0.02-6.0265 0.024-9.0758q0.0063-4.7433 9.4e-4 -9.4866 0-4.625 0-9.25c1e-5 -3.0784 0-6.1567 0-9.5178zm253.1-0.12062c2.7871 0 5.4704 0.18919 8.1149-0.0501 2.9951-0.271 5.139 0.8001 7.3235 2.8131 12.613 11.622 25.357 23.101 38.059 34.627 0.63855 0.57948 1.2904 1.1443 2.1101 1.8701 0.76445-0.65718 1.4812-1.2432 2.1648-1.8655q19.639-17.877 39.248-35.787a5.4477 5.4477 0 0 1 4.2036-1.6458c3.2189 0.13038 6.4467 0.0375 9.8412 0.0375v105.37c-1.7231 0.50368-24.876 0.60366-27.639 0.0611v-53.362l-0.53656-0.25427c-9.0108 8.2178-18.022 16.436-27.238 24.841-9.2258-8.3112-18.342-16.523-27.458-24.736l-0.52449 0.19192c-0.023 4.4536-8e-3 8.9083-0.0105 13.362q-4e-3 6.6394-5.8e-4 13.279v26.872h-27.428c-0.51411-1.773-0.75283-99.662-0.22996-105.62zm43.794 150.15a176.64 176.64 0 0 1-23.973 27.163c0.70941 0.59068 1.2859 1.0704 1.8621 1.5506a108.31 108.31 0 0 1 33.683 48.146 34.618 34.618 0 0 1 2.202 14.42 14.885 14.885 0 0 1-0.74786 3.6921 7.2076 7.2076 0 0 1-8.1579 5.0231 22.233 22.233 0 0 1-6.7628-2.0063 51.232 51.232 0 0 1-9.1815-5.8151 107.59 107.59 0 0 1-32.936-46.707c-0.18746-0.51334-0.39218-1.0204-0.72243-1.8769a194.65 194.65 0 0 1-25.012 14.008 181.67 181.67 0 0 1-26.687 9.7244 187.56 187.56 0 0 1-28.304 5.388c0.16807 0.84015 0.26446 1.5098 0.43745 2.1591a109.17 109.17 0 0 1 2.9708 36.443 80.804 80.804 0 0 1-4.4229 22.477 78.25 78.25 0 0 1-4.1648 8.7447 13.39 13.39 0 0 1-2.3386 2.9708c-3.9801 4.109-8.7322 4.144-12.612-0.0737a27.28 27.28 0 0 1-3.907-5.6178c-3.0768-5.7757-4.6604-12.056-5.791-18.46a116.86 116.86 0 0 1-1.3589-26.465 94.48 94.48 0 0 1 2.8847-19.185c0.14009-0.53269 0.268-1.0696 0.37134-1.6103 0.0263-0.13754-0.0634-0.2973-0.17067-0.73825a176.12 176.12 0 0 1-80.969-24.994c-0.40992 0.90921-0.76206 1.6747-1.1017 2.4458a110.48 110.48 0 0 1-30.901 41.42 38.161 38.161 0 0 1-12.047 6.9591 12.09 12.09 0 0 1-6.5152 0.70023 7.1186 7.1186 0 0 1-5.4033-4.4892c-1.4161-3.424-1.1653-6.985-0.68438-10.517a55.453 55.453 0 0 1 4.3077-14.25 112.5 112.5 0 0 1 26.511-37.763c0.459-0.43461 0.92981-0.857 1.3809-1.2995a3.7603 3.7603 0 0 0 0.36534-0.65529 178.9 178.9 0 0 1-28.469-31.317c0.98458-0.0802 1.6433-0.18 2.302-0.1806 10.514-0.01 21.029 0.0274 31.543-0.0436a4.7055 4.7055 0 0 1 3.7034 1.6262 146.95 146.95 0 0 0 39.403 28.885 139.95 139.95 0 0 0 49.704 14.774q70.68 6.8707 121.6-42.855a7.6457 7.6457 0 0 1 5.9926-2.4435c9.8014 0.12121 19.605 0.0499 29.408 0.0499h2.5335zm-258-226.78c-0.572-0.54252-1.1946-1.1264-1.81-1.7176-12.617-12.121-22.381-26.136-28.279-42.702-1.6507-4.6364-2.8969-9.3652-2.6759-14.359 0.021-0.4739 0.0196-0.94915 0.0523-1.4221 0.445-6.4459 4.7591-9.7032 11.058-8.1767a27.325 27.325 0 0 1 5.7315 2.1965c6.8902 3.4554 12.506 8.5636 17.671 14.166a112.53 112.53 0 0 1 21.722 33.43 8.2964 8.2964 0 0 0 0.38946 0.861c0.0712 0.12855 0.22232 0.21282 0.55927 0.51883a176.36 176.36 0 0 1 81.02-24.861c-0.17651-0.8761-0.28195-1.5457-0.44772-2.2a112.49 112.49 0 0 1-2.6529-36.956 84.075 84.075 0 0 1 4.4444-21.764 31.326 31.326 0 0 1 5.4765-10.171 15.687 15.687 0 0 1 3.1634-2.8215 7.026 7.026 0 0 1 8.0326-0.056 17.279 17.279 0 0 1 5.8402 6.7318 53.054 53.054 0 0 1 5.2622 14.677 112.5 112.5 0 0 1 2.1226 33.004 95.598 95.598 0 0 1-3.4905 19.911c7.1217 1.3119 14.21 2.3287 21.147 3.9771a186.38 186.38 0 0 1 20.441 6.0033 188.32 188.32 0 0 1 19.77 8.5693c6.3454 3.1643 12.386 6.9407 18.718 10.538 0.20571-0.433 0.50439-0.94982 0.706-1.5021a108.66 108.66 0 0 1 32.901-46.762 37.758 37.758 0 0 1 11.822-6.883 17.246 17.246 0 0 1 3.6783-0.84512c6.264-0.71729 8.8935 3.2244 9.3565 7.9318a29.944 29.944 0 0 1-0.77381 10.355 87.906 87.906 0 0 1-10.73 24.688c-6.7902 10.972-14.85 20.855-25.093 28.83-0.30234 0.2354-0.56784 0.51814-1.0799 0.99029a177.78 177.78 0 0 1 26.593 30.882 10.962 10.962 0 0 1-1.689 0.29762c-10.595 0.015-21.191-0.0183-31.786 0.0461a4.004 4.004 0 0 1-3.1725-1.69 147.88 147.88 0 0 0-88.178-46.548 143.36 143.36 0 0 0-30.28-1.1692 146.41 146.41 0 0 0-82.537 31.811 140.07 140.07 0 0 0-16.976 15.842 4.7284 4.7284 0 0 1-3.8633 1.7574c-10.121-0.0703-20.242-0.035-30.363-0.0349h-2.1521c0.618-2.408 6.8403-10.938 13.884-18.553 5.2525-5.6788 10.817-11.069 16.468-16.818z"/>
</svg>
