<?xml version="1.0" standalone="no"?>
<!DOCTYPE svg PUBLIC "-//W3C//DTD SVG 1.1//EN" "http://www.w3.org/Graphics/SVG/1.1/DTD/svg11.dtd" >
<svg xmlns="http://www.w3.org/2000/svg" xmlns:xlink="http://www.w3.org/1999/xlink" version="1.1" viewBox="0 0 512 512">
  <g transform="matrix(1 0 0 -1 0 512)">
   <path fill="currentColor"
d="M361 471q-6 2 -6 -4l-8 -26q-9 -3 -20 -8l-24 15q-4 4 -6 -1l-28 -34q-3 -3 0 -7l20 -20q-2 -8 -2 -11q-2 -6 -2 -11l-24 -12q-5 -2 -3 -7l15 -41q1 -3 7 -3l27 7q8 -8 17 -14l-2 -27q0 -6 5 -6l43 -7q5 0 6 4l7 27q9 1 21 8l23 -16q4 -1 7 2l28 33q3 3 -1 7l-19 20
q0 2 1 5.5t1 5.5q1 4 1 11l25 12q4 4 3 7l-16 41q-2 5 -6 3l-27 -7q-5 6 -17 14l1 28q0 5 -4 6zM363 405h9q17 -3 27.5 -17.5t8 -31.5t-17 -27.5t-32 -8t-27.5 16.5t-8 32q3 16 14.5 26t25.5 10zM155 320q-7 0 -7 -6l-4 -36q-12 -5 -25 -15l-33 15q-6 2 -9 -3l-28 -49
q-4 -5 2 -9l29 -21q-1 -5 -1 -15t1 -14l-29 -21q-6 -4 -2 -9l28 -50q4 -6 9 -2l33 14q14 -10 25 -14l4 -36q0 -6 7 -6h56q7 0 8 6l3 36q14 5 25 14l33 -14q2 -2 5 -1t4 3l28 50q4 5 -2 9l-29 21q1 4 1 14t-1 15l29 21q6 4 2 9l-28 49q-2 5 -9 3l-33 -15q-9 8 -25 15l-3 36
q-1 6 -8 6h-56zM183 237q23 0 39.5 -16.5t16.5 -39.5t-16.5 -39t-39.5 -16t-39 16t-16 39t16 39.5t39 16.5z" />
  </g>

</svg>
