<?xml version="1.0" standalone="no"?>
<!DOCTYPE svg PUBLIC "-//W3C//DTD SVG 1.1//EN" "http://www.w3.org/Graphics/SVG/1.1/DTD/svg11.dtd" >
<svg xmlns="http://www.w3.org/2000/svg" xmlns:xlink="http://www.w3.org/1999/xlink" version="1.1" viewBox="0 0 512 512">
  <g transform="matrix(1 0 0 -1 0 512)">
   <path fill="currentColor"
d="M256 491q-53 0 -90.5 -37.5t-37.5 -90.5v-22q-17 0 -30 -12.5t-13 -29.5v-214q0 -17 13 -29.5t30 -12.5h256q17 0 30 12.5t13 29.5v214q0 17 -13 29.5t-30 12.5v22q0 53 -37.5 90.5t-90.5 37.5zM256 448q37 0 61 -24.5t24 -60.5v-22h-170v22q0 36 24 60.5t61 24.5z
M256 235q17 0 30 -13t13 -30t-13 -30t-30 -13t-30 13t-13 30t13 30t30 13z" />
  </g>

</svg>
