<?xml version="1.0" standalone="no"?>
<!DOCTYPE svg PUBLIC "-//W3C//DTD SVG 1.1//EN" "http://www.w3.org/Graphics/SVG/1.1/DTD/svg11.dtd" >
<svg xmlns="http://www.w3.org/2000/svg" xmlns:xlink="http://www.w3.org/1999/xlink" version="1.1" viewBox="0 0 512 512">
  <g transform="matrix(1 0 0 -1 0 512)">
   <path fill="currentColor"
d="M128 469q-3 -1 -18 -15t-30.5 -35.5t-15.5 -35.5t14 -33q14 -15 42 -31q1 -1 4 -2.5t4 -2.5v-229q0 -17 12.5 -29.5t30 -12.5t30 12.5t12.5 29.5v229l8 5q1 0 8.5 4t18.5 12t17 16q12 17 12 33q0 13 -15.5 34.5t-30.5 35.5t-18 15v-64q-19 -12 -42 -12q-11 0 -21.5 3
t-15.5 6l-6 3v64zM363 469l-22 -64l22 -21v-149h-22q-8 0 -14.5 -6.5t-6.5 -15t6.5 -15t14.5 -6.5v-107q0 -17 13 -29.5t30 -12.5t30 12.5t13 29.5v107q8 0 14.5 6.5t6.5 15t-6.5 15t-14.5 6.5h-22v149l22 21l-22 64h-42zM487 317q-1 -1 -3 -2l-3 -3z" />
  </g>

</svg>
