<?xml version="1.0" standalone="no"?>
<!DOCTYPE svg PUBLIC "-//W3C//DTD SVG 1.1//EN" "http://www.w3.org/Graphics/SVG/1.1/DTD/svg11.dtd" >
<svg xmlns="http://www.w3.org/2000/svg" xmlns:xlink="http://www.w3.org/1999/xlink" version="1.1" viewBox="0 0 512 512">
  <g transform="matrix(1 0 0 -1 0 512)">
   <path fill="currentColor"
d="M107 299q-18 0 -30.5 -12.5t-12.5 -30.5t12.5 -30.5t30 -12.5t30 12.5t12.5 30.5t-12.5 30.5t-29.5 12.5zM256 299q-18 0 -30.5 -12.5t-12.5 -30.5t12.5 -30.5t30.5 -12.5t30.5 12.5t12.5 30.5t-12.5 30.5t-30.5 12.5zM405 299q-17 0 -29.5 -12.5t-12.5 -30.5t12.5 -30.5
t30 -12.5t30 12.5t12.5 30.5t-12.5 30.5t-30.5 12.5z" />
  </g>

</svg>
