<?xml version="1.0" standalone="no"?>
<!DOCTYPE svg PUBLIC "-//W3C//DTD SVG 1.1//EN" "http://www.w3.org/Graphics/SVG/1.1/DTD/svg11.dtd" >
<svg xmlns="http://www.w3.org/2000/svg" xmlns:xlink="http://www.w3.org/1999/xlink" version="1.1" viewBox="0 0 512 512">
  <g transform="matrix(1 0 0 -1 0 512)">
   <path fill="currentColor"
d="M405 469h-89q-15 43 -60 43t-60 -43h-89q-18 0 -30.5 -12.5t-12.5 -29.5v-342q0 -17 12.5 -29.5t30.5 -12.5h298q18 0 30.5 12.5t12.5 29.5v342q0 17 -12.5 29.5t-30.5 12.5zM256 469q21 0 21 -21t-21 -21t-21 21t21 21zM405 85h-298v342h42v-43h214v43h42v-342z" />
  </g>

</svg>
