<?xml version="1.0" encoding="utf-8"?>
<!-- Generator: Adobe Illustrator 21.0.2, SVG Export Plug-In . SVG Version: 6.00 Build 0)  -->
<svg version="1.1" id="Слой_1" xmlns="http://www.w3.org/2000/svg" xmlns:xlink="http://www.w3.org/1999/xlink" x="0px" y="0px"
	 viewBox="0 0 500 500" style="enable-background:new 0 0 500 500;" xml:space="preserve">
<style type="text/css">
	.st0{fill:#231F20;}
</style>
<g>
	<path class="st0" d="M221.7,225.3h-1.6c-4.2,0-6.3-5.1-3.4-8l1.2-1.2c4.6-4.6,4.6-12,0-16.6l-5.5-5.5c-4.5-4.6-12-4.6-16.6,0
		l-1.2,1.2c-3,3-8,0.9-8-3.4v-1.6c0-6.5-5.2-11.7-11.7-11.7h-7.8c-6.5,0-11.7,5.2-11.7,11.7v1.6c0,4.2-5.1,6.3-8,3.4l-1.2-1.2
		c-4.6-4.6-12-4.6-16.6,0l-5.5,5.5c-4.6,4.5-4.6,12,0,16.6l1.2,1.2c3,3,0.9,8-3.4,8h-1.6c-6.5,0-11.7,5.2-11.7,11.7v7.8
		c0,6.5,5.2,11.7,11.7,11.7h1.6c4.2,0,6.3,5.1,3.4,8l-1.2,1.2c-4.6,4.6-4.6,12,0,16.6l5.5,5.5c4.5,4.6,12,4.6,16.6,0l1.2-1.2
		c3-3,8-0.9,8,3.4v1.6c0,6.5,5.2,11.7,11.7,11.7h7.8c6.5,0,11.7-5.2,11.7-11.7V290c0-4.2,5.1-6.3,8-3.4l1.2,1.2
		c4.6,4.6,12,4.6,16.6,0l5.5-5.5c4.6-4.5,4.6-12,0-16.6l-1.2-1.2c-3-3-0.9-8,3.4-8h1.6c6.5,0,11.7-5.2,11.7-11.7V237
		C233.5,230.5,228.2,225.3,221.7,225.3z M171,279.8c-21.5,0-39-17.4-39-39c0-21.5,17.4-39,39-39s39,17.4,39,39
		C209.9,262.4,192.5,279.8,171,279.8z"/>
	<circle class="st0" cx="171" cy="240.9" r="12.8"/>
</g>
<g>
	<path class="st0" d="M414.1,453.1H85.9c-21.5,0-39.1-17.5-39.1-39.1V85.9c0-21.5,17.5-39.1,39.1-39.1H414
		c21.5,0,39.1,17.5,39.1,39.1V414C453.1,435.6,435.6,453.1,414.1,453.1z M85.9,62.5C73,62.5,62.5,73,62.5,85.9V414
		c0,12.9,10.5,23.4,23.4,23.4H414c12.9,0,23.4-10.5,23.4-23.4V85.9c0-12.9-10.5-23.4-23.4-23.4H85.9z"/>
	<rect x="53.9" y="114.1" class="st0" width="383.5" height="15.4"/>
	<rect x="108.6" y="342.5" class="st0" width="279.6" height="15.4"/>
	<rect x="110.2" y="384" class="st0" width="217.6" height="15.4"/>
</g>
</svg>
