<?xml version="1.0" encoding="utf-8"?>
<!-- Generator: Adobe Illustrator 21.0.2, SVG Export Plug-In . SVG Version: 6.00 Build 0)  -->
<svg version="1.1" id="Layer_1" xmlns="http://www.w3.org/2000/svg" xmlns:xlink="http://www.w3.org/1999/xlink" x="0px" y="0px"
	 viewBox="0 0 500 500" style="enable-background:new 0 0 500 500;" xml:space="preserve">
<style type="text/css">
	.st0{fill:#231F20;}
</style>
<g id="surface1">
	<path class="st0" d="M250,17.1c-128.6,0-233,104.4-233,233c0,74.4,35.1,140.5,89.4,183.2c2.7,2.1,5.4,4.2,8.2,6.1
		c0.8,0.6,1.5,1.2,2.3,1.7c1.2,0.8,2.3,1.5,3.5,2.3c2.5,1.7,5,3.3,7.6,5c0.6,0.4,1.1,0.8,1.7,1.2c1.1,0.7,2.1,1.4,3.2,2
		c2,1.2,4.1,2.1,6.1,3.2c3.2,1.8,6.5,3.6,9.9,5.2c3.4,1.7,6.9,3.1,10.5,4.7c29.1,12.5,61.9,20.1,95.8,20.1c17.7,0,35.8-3.6,53-9
		c34.9-9,66.6-26.1,93.2-48.9c1.1-0.9,1.9-1.5,2.9-2.3c0.6-0.5,1.2-0.9,1.7-1.5c0.2-0.2,0.4-0.4,0.6-0.6c1.1-1,2.1-2.1,3.2-3.2
		c45-42.5,73.1-102.6,73.1-169.2C483,121.5,378.6,17.1,250,17.1z M250,35.7c118.5,0,214.4,95.9,214.4,214.4
		c0,58.8-23.5,112.2-61.7,150.9c-18.1-13.7-39.8-21.2-58.2-28.5c-20.2-8.1-34.6-16.1-39-26.8c-1-12.1-0.9-21.7-0.9-33.2
		c1.2-1.3,2.9-2.2,4.1-3.8c2.5-3.5,5-7.8,7.3-12.5c4-8.2,6.8-17.9,8.4-27.7c2.9-1.5,6-1.9,8.4-5c4.5-5.7,7.6-13.9,9-25.3
		c1.2-10.2-2.2-16.9-6.4-22.1c4.6-14.8,10.4-38.7,8.4-63.2c-1.1-13.4-4.5-26.8-12.5-37.9c-7.4-10.2-19.3-17.6-34.4-20.7
		c-9.8-12.7-27.4-17.5-47.8-17.5h-0.3c-43.5,0.8-71.4,18.4-83.3,45.7c-11.4,26-8.8,58.9-0.6,92.9c-4.4,5.2-8,12.2-6.7,22.7
		c1.4,11.5,4.6,19.6,9,25.3c2.5,3.1,5.7,3.4,8.7,5c1.6,9.8,4.4,19.5,8.4,27.7c2.3,4.7,5,9,7.6,12.5c1.2,1.6,2.8,2.5,4.1,3.8
		c0.1,11.5,0.1,21.1-0.9,33.2c-4.4,10.6-18.9,18.4-39,26.5c-18.6,7.5-40.5,15-58.8,28.8c-38.3-38.7-61.7-92.1-61.7-150.9
		C35.6,131.6,131.5,35.7,250,35.7z M249.1,95.4c0.1,0,0.2,0,0.3,0c18.7,0.1,30.9,5.6,34.4,11.6l2.3,3.8l4.4,0.6
		c13,1.8,20.4,7,25.6,14.3c5.2,7.2,8.2,17.4,9,28.5c1.7,22.4-4.7,48.4-8.7,60.6l-2.3,7.3l6.4,3.8c-0.4-0.3,3.6,2.4,2.6,10.2
		c-1.1,9.1-3.3,13.9-5,16c-1.7,2.1-2.5,2-2.6,2l-7.9,0.6l-0.9,7.6c-0.9,8.1-4.1,17.9-7.9,25.6c-1.9,3.9-3.8,7.2-5.5,9.6
		c-1.7,2.4-3.5,3.7-2.6,3.2l-5,2.6v5.5c0,13.5-0.5,24.6,0.9,40.2v1.2l0.6,1.2c7.7,20.7,28.9,29.6,50.1,38.2
		c17.4,7,35,14.4,49.5,24.2c-3.1,2.4-4.2,3.9-8.7,7c-9.2,6.3-21.3,13.6-34.7,20.4c-13.1,6.6-27.5,12.6-42.2,17.2
		c-0.4,0.1-0.8,0.2-1.2,0.3c-16.1,3.9-32.8,5.8-50.1,5.8c-20.4,0-40.1-2.8-58.8-8.2c-29.9-9.2-57-24.4-77.8-42.5
		c14.6-9.8,32.3-17.2,49.8-24.2c21.2-8.5,42.4-17.5,50.1-38.2l0.6-2.3c1.4-15.6,0.9-26.7,0.9-40.2v-5.5l-5-2.6
		c0.8,0.4-1.2-0.8-2.9-3.2c-1.7-2.4-3.9-5.8-5.8-9.6c-3.9-7.7-7-17.7-7.9-25.6l-0.9-7.6l-7.9-0.6c-0.1,0-0.9,0.1-2.6-2
		c-1.7-2.1-3.9-6.9-5-16c-0.9-7.8,3-10.4,2.6-10.2l6.1-3.8l-1.7-6.7c-8.8-33.8-10.3-64.5-1.2-85.3
		C191.8,109.3,210.4,96.2,249.1,95.4z"/>
</g>
</svg>
