<?xml version="1.0" standalone="no"?>
<!DOCTYPE svg PUBLIC "-//W3C//DTD SVG 1.1//EN" "http://www.w3.org/Graphics/SVG/1.1/DTD/svg11.dtd" >
<svg xmlns="http://www.w3.org/2000/svg" xmlns:xlink="http://www.w3.org/1999/xlink" version="1.1" viewBox="0 0 512 512">
  <g transform="matrix(1 0 0 -1 0 512)">
   <path fill="currentColor"
d="M256 491q-13 0 -22.5 -9.5t-9.5 -23.5t11 -23v-51h42v51q11 9 11 23t-9.5 23.5t-22.5 9.5zM53 405q-13 0 -22.5 -9.5t-9.5 -22.5t9.5 -22.5t22.5 -9.5l6 1l69 -25v3q0 21 13 39l-56 19q-1 12 -10.5 19.5t-21.5 7.5zM459 405q-12 0 -21.5 -7.5t-10.5 -19.5l-56 -19
q13 -18 13 -39v-3l69 25l6 -1q13 0 22.5 9.5t9.5 22.5t-9.5 22.5t-22.5 9.5zM192 363q-17 0 -30 -13t-13 -30v-128q0 -17 13 -30t30 -13h128q17 0 30 13t13 30v128q0 17 -13 30t-30 13h-128zM235 320h42q10 0 16 -6t6 -15q0 -22 -22 -22h-42q-22 0 -22 22q0 9 6 15t16 6z
M128 194l-69 -24l-6 1q-13 0 -22.5 -9.5t-9.5 -22.5t9.5 -22.5t22 -9.5t22 7.5t10.5 19.5l56 19q-13 18 -13 39v2zM384 194v-2q0 -21 -13 -39l56 -19q1 -12 10.5 -19.5t22 -7.5t22 9.5t9.5 22.5t-9.5 22.5t-22.5 9.5l-6 -1zM235 128v-51q-11 -9 -11 -23t9.5 -23.5t22.5 -9.5
t22.5 9.5t9.5 23.5t-11 23v51h-42z" />
  </g>

</svg>
