<?xml version="1.0" standalone="no"?>
<!DOCTYPE svg PUBLIC "-//W3C//DTD SVG 1.1//EN" "http://www.w3.org/Graphics/SVG/1.1/DTD/svg11.dtd" >
<svg xmlns="http://www.w3.org/2000/svg" xmlns:xlink="http://www.w3.org/1999/xlink" version="1.1" viewBox="0 0 512 512">
  <g transform="matrix(1 0 0 -1 0 512)">
   <path fill="currentColor"
d="M213 469q-66 0 -114 -20q-24 -11 -38 -25q-18 -16 -18 -40v-256q0 -39 51 -62t119 -23q22 0 56 4q-15 11 -30 40q-9 -2 -26 -2q-37 0 -67.5 8t-45.5 17.5t-15 17.5v28q53 -28 128 -28h13l-1 10q-1 7 -1 11q0 15 2 22h-13q-37 0 -67.5 7.5t-45.5 17t-15 17.5v28
q53 -28 128 -28q18 0 28 2q15 30 47 52q-33 -11 -75 -11q-37 0 -67.5 8t-45.5 17.5t-15 17.5v28q2 -2 6.5 -4t7.5 -4q48 -20 115 -20t113 20l7 4l7 4v-28q0 -5 -10 -15q20 4 32 4q15 0 21 -2v98q0 22 -18 40q-14 14 -39 25q-46 20 -114 20zM213 427q55 0 98 -18
q18 -8 25 -15q5 -5 5 -10t-5 -10q-7 -7 -25 -15q-43 -18 -98.5 -18t-96.5 18q-20 8 -25.5 14.5t-5.5 10.5t5.5 10.5t25.5 14.5q41 18 97 18zM341 256q-4 0 -4 -4l-2 -28q-9 -3 -19 -11l-26 11q-2 1 -4 0.5t-2 -2.5l-21 -39q-1 -1 -0.5 -3.5t2.5 -2.5l23 -17v-21l-23 -18
q-9 -2 -9 -6l21 -38q5 -5 7 -2l25 10q15 -9 20 -10l2 -28q0 -4 4 -4h42q5 0 5 4l2 28q8 3 19 10l26 -10q1 -1 3.5 -0.5t2.5 2.5l22 38q1 1 0.5 3.5t-2.5 2.5l-16 18v21l24 17q2 2 2 6l-21 39q-4 4 -7 2l-28 -11q-10 8 -18 11l-3 28q0 4 -4 4h-43zM361 192q17 0 29.5 -12.5
t12.5 -30t-12.5 -30t-30 -12.5t-30 12.5t-12.5 30t12.5 30t30.5 12.5z" />
  </g>

</svg>
