<?xml version="1.0" encoding="utf-8"?>
<!-- Generator: Adobe Illustrator 21.0.2, SVG Export Plug-In . SVG Version: 6.00 Build 0)  -->
<svg version="1.1" id="Слой_1" xmlns="http://www.w3.org/2000/svg" xmlns:xlink="http://www.w3.org/1999/xlink" x="0px" y="0px"
	 viewBox="0 0 500 500" style="enable-background:new 0 0 500 500;" xml:space="preserve">
<style type="text/css">
	.st0{fill:#231F20;}
</style>
<g>
	<path class="st0" d="M347.5,300.8l-5.2-15.5c-4-11.9-15.1-19.9-27.6-19.9H185.2c-12.6,0-23.7,8-27.6,19.9l-5.2,15.5
		c-14,2.1-24.8,14.1-24.8,28.7c0,16.1,13.1,29.1,29.1,29.1s29.1-13.1,29.1-29.1c0-12.9-8.4-23.7-20-27.6c-0.5-0.2,0.1-0.3-0.4-0.4
		l5.2-12.5c2.4-7.1,7-9.9,14.6-9.9h58.9v33.5c-16.5,2.8-29.1,17.1-29.1,34.4c0,19.3,15.7,35,35,35s35-15.7,35-35
		c0-17.3-12.6-31.6-29.1-34.4v-33.5h58.9c7.5,0,12.2,2.8,14.6,9.9l5.2,12.5c-0.5,0.1,0,0.3-0.5,0.5c-11.5,3.9-19.9,14.7-19.9,27.5
		c0,16.1,13.1,29.1,29.1,29.1c16.1,0,29.1-13.1,29.1-29.1C372.3,314.9,361.5,302.9,347.5,300.8z M174.3,329.5
		c0,9.6-7.8,17.5-17.5,17.5c-9.6,0-17.5-7.8-17.5-17.5s7.8-17.5,17.5-17.5C166.4,312,174.3,319.9,174.3,329.5z M273.3,347
		c0,12.9-10.5,23.3-23.3,23.3c-12.9,0-23.3-10.5-23.3-23.3c0-12.9,10.5-23.3,23.3-23.3C262.9,323.7,273.3,334.1,273.3,347z
		 M343.2,347c-9.6,0-17.5-7.8-17.5-17.5s7.8-17.5,17.5-17.5s17.5,7.8,17.5,17.5S352.8,347,343.2,347z"/>
	<path class="st0" d="M289.1,211.4c0-21.3-17.3-38.6-38.6-38.6s-38.6,17.3-38.6,38.6s17.3,38.6,38.6,38.6S289.1,232.7,289.1,211.4z
		 M224.8,211.4c0-14.2,11.5-25.7,25.7-25.7c14.2,0,25.7,11.5,25.7,25.7s-11.5,25.7-25.7,25.7S224.8,225.6,224.8,211.4z"/>
</g>
<rect x="244" y="244.3" class="st0" width="12" height="73.7"/>
<path class="st0" d="M414.1,453.1H85.9c-21.5,0-39.1-17.5-39.1-39.1V85.9c0-21.5,17.5-39.1,39.1-39.1H414
	c21.5,0,39.1,17.5,39.1,39.1V414C453.1,435.6,435.6,453.1,414.1,453.1z M85.9,62.5C73,62.5,62.5,73,62.5,85.9V414
	c0,12.9,10.5,23.4,23.4,23.4H414c12.9,0,23.4-10.5,23.4-23.4V85.9c0-12.9-10.5-23.4-23.4-23.4H85.9z"/>
<rect x="53.9" y="114.1" class="st0" width="383.5" height="15.4"/>
</svg>
