<?xml version="1.0" encoding="utf-8"?>
<!-- Generator: Adobe Illustrator 21.0.2, SVG Export Plug-In . SVG Version: 6.00 Build 0)  -->
<svg version="1.1" id="Слой_1" xmlns="http://www.w3.org/2000/svg" xmlns:xlink="http://www.w3.org/1999/xlink" x="0px" y="0px"
	 viewBox="0 0 64 64" style="enable-background:new 0 0 64 64;" xml:space="preserve">
<style type="text/css">
	.st0{fill:#231F20;}
</style>
<path class="st0" d="M58,33v-1c0-4.8-4.2-9-9-9c-4.3,0-7.9,3-8.8,7H32v-8h6h1h1c1.1,0,2-0.9,2-2v-8c0-1.1-0.9-2-2-2h-1h-1H23
	c-6.1,0-11,4.9-11,11v1h10v8H9c-1.7,0-3,1.3-3,3v4c0,1.7,1.3,3,3,3h13v11c0,1.7,1.3,3,3,3h4c1.7,0,3-1.3,3-3V40h8.2
	c0.9,4,4.5,7,8.8,7c4.8,0,9-4.2,9-9v-1h-8v-4H58z M39,12h1v8h-1h-1v-8H39z M23,12h13v8H14.1C14.6,15.5,18.4,12,23,12z M30,22v2h-6
	v-2H30z M9,38c-0.6,0-1-0.4-1-1v-4c0-0.6,0.4-1,1-1h13v2h-8v2h8v2H9z M29,52h-4c-0.6,0-1-0.4-1-1V26h2l0,0h2l0,0h2v25
	C30,51.6,29.6,52,29,52z M50,39h5.9c-0.5,3-3.3,6-6.9,6c-3.9,0-7-3.1-7-7h-2h-8v-2h8v-2h-8v-2h8h1h1c0-3.9,3.1-7,7-7
	c3.6,0,6.4,3,6.9,6H50c-1.1,0-2,0.9-2,2v4C48,38.1,48.9,39,50,39z"/>
</svg>
